<?xml version="1.0" encoding="UTF-8" standalone="no"?>
<!-- Created with Inkscape (http://www.inkscape.org/) -->

<svg
   xmlns:dc="http://purl.org/dc/elements/1.1/"
   xmlns:cc="http://creativecommons.org/ns#"
   xmlns:rdf="http://www.w3.org/1999/02/22-rdf-syntax-ns#"
   xmlns:svg="http://www.w3.org/2000/svg"
   xmlns="http://www.w3.org/2000/svg"
   version="1.1"
   width="64"
   height="64"
   id="svg2">
  <defs
     id="defs4" />
  <metadata
     id="metadata7">
    <rdf:RDF>
      <cc:Work
         rdf:about="">
        <dc:format>image/svg+xml</dc:format>
        <dc:type
           rdf:resource="http://purl.org/dc/dcmitype/StillImage" />
        <dc:title />
      </cc:Work>
    </rdf:RDF>
  </metadata>
  <g
     id="layer2" />
  <g
     transform="translate(0,-988.36218)"
     id="layer1">
    <rect
       width="29.993082"
       height="28.831377"
       x="-99.10582"
       y="1023.1351"
       transform="matrix(0.99184408,-0.12745714,0.12745714,0.99184408,0,0)"
       id="rect3284-39"
       style="fill:#333333;fill-opacity:1;fill-rule:nonzero;stroke:none" />
    <rect
       width="33.347652"
       height="33.685635"
       x="155.66042"
       y="974.71484"
       transform="matrix(0.99212665,0.12523863,-0.12523863,0.99212665,0,0)"
       id="rect3284-5"
       style="fill:#333333;fill-opacity:1;fill-rule:nonzero;stroke:none" />
    <rect
       width="28.212547"
       height="38.638924"
       x="-157.35716"
       y="977.51233"
       transform="matrix(0.98777993,-0.15585509,0.15585509,0.98777993,0,0)"
       id="rect3284-3"
       style="fill:#333333;fill-opacity:1;fill-rule:nonzero;stroke:none" />
    <rect
       width="28.862362"
       height="26.10832"
       x="106.42548"
       y="1020.3864"
       transform="matrix(0.99491251,0.10074271,-0.10074271,0.99491251,0,0)"
       id="rect3284"
       style="fill:#333333;fill-opacity:1;fill-rule:nonzero;stroke:none" />
    <rect
       width="12.618654"
       height="11.031878"
       x="-429.2413"
       y="906.53827"
       transform="matrix(0.90030706,-0.43525532,0.43525532,0.90030706,0,0)"
       id="rect5715"
       style="fill:#c87137;fill-opacity:1;fill-rule:nonzero" />
    <rect
       width="26.666498"
       height="20.888758"
       x="-312.43607"
       y="977.58051"
       transform="matrix(0.94237003,-0.33457245,0.33457245,0.94237003,0,0)"
       id="rect5717"
       style="fill:#c87137;fill-opacity:1;fill-rule:nonzero" />
    <rect
       width="4.2314048"
       height="14.809917"
       x="342.10062"
       y="976.52203"
       transform="matrix(0.94545104,0.32576422,-0.32576422,0.94545104,0,0)"
       id="rect5719"
       style="fill:#c87137;fill-opacity:1;fill-rule:nonzero" />
    <rect
       width="15.716647"
       height="9.2184181"
       x="-363.9675"
       y="977.38013"
       transform="matrix(0.92892751,-0.37026163,0.37026163,0.92892751,0,0)"
       id="rect5721"
       style="fill:#c87137;fill-opacity:1;fill-rule:nonzero" />
    <rect
       width="15.414404"
       height="23.8487"
       x="41.33176"
       y="987.98438"
       id="rect5723"
       style="fill:#c87137;fill-opacity:1;fill-rule:nonzero" />
    <rect
       width="16.583061"
       height="24.567495"
       x="271.08575"
       y="953.42871"
       transform="matrix(0.96378537,0.26667914,-0.26667914,0.96378537,0,0)"
       id="rect5725"
       style="fill:#c87137;fill-opacity:1;fill-rule:nonzero" />
    <rect
       width="4.533648"
       height="4.2314048"
       x="593.17792"
       y="830.64307"
       transform="matrix(0.82587813,0.56384866,-0.56384866,0.82587813,0,0)"
       id="rect5729"
       style="fill:#b3b3b3;fill-opacity:1;fill-rule:nonzero" />
    <rect
       width="19.429985"
       height="19.888962"
       x="-575.46405"
       y="825.96179"
       transform="matrix(0.80095747,-0.59872125,0.59872125,0.80095747,0,0)"
       id="rect5731"
       style="fill:#b3b3b3;fill-opacity:1;fill-rule:nonzero" />
    <rect
       width="13.374262"
       height="11.513494"
       x="11.69331"
       y="1005.3987"
       id="rect5733"
       style="fill:#b3b3b3;fill-opacity:1;fill-rule:nonzero" />
    <rect
       width="12.316411"
       height="10.35183"
       x="-799.39636"
       y="667.04425"
       transform="matrix(0.60365214,-0.79724782,0.79724782,0.60365214,0,0)"
       id="rect5735"
       style="fill:#b3b3b3;fill-opacity:1;fill-rule:nonzero" />
    <rect
       width="8.0094452"
       height="10.125148"
       x="419.9704"
       y="945.39716"
       transform="matrix(0.92171792,0.3878609,-0.3878609,0.92171792,0,0)"
       id="rect5737"
       style="fill:#b3b3b3;fill-opacity:1;fill-rule:nonzero" />
    <rect
       width="14.885478"
       height="13.827627"
       x="202.15298"
       y="1003.44"
       transform="matrix(0.98864422,0.15027509,-0.15027509,0.98864422,0,0)"
       id="rect5739"
       style="fill:#b3b3b3;fill-opacity:1;fill-rule:nonzero" />
    <rect
       width="6.9515939"
       height="10.502952"
       x="54.252655"
       y="5.5914993"
       transform="translate(0,988.36218)"
       id="rect5741"
       style="fill:#b3b3b3;fill-opacity:1;fill-rule:nonzero" />
    <rect
       width="7.5560803"
       height="9.9740257"
       x="533.92755"
       y="839.05762"
       transform="matrix(0.85499746,0.51863219,-0.51863219,0.85499746,0,0)"
       id="rect5743"
       style="fill:#b3b3b3;fill-opacity:1;fill-rule:nonzero" />
    <rect
       width="16.254383"
       height="28.411022"
       x="-387.99973"
       y="919.45636"
       transform="matrix(0.92381616,-0.38283639,0.38283639,0.92381616,0,0)"
       id="rect5745"
       style="fill:#b3b3b3;fill-opacity:1;fill-rule:nonzero" />
    <rect
       width="9.8229046"
       height="9.4451008"
       x="-507.09641"
       y="883.6156"
       transform="matrix(0.86741436,-0.49758651,0.49758651,0.86741436,0,0)"
       id="rect5747"
       style="fill:#b3b3b3;fill-opacity:1;fill-rule:nonzero" />
    <rect
       width="6.9515939"
       height="7.3293977"
       x="-559.2948"
       y="869.40924"
       transform="matrix(0.83886489,-0.54433969,0.54433969,0.83886489,0,0)"
       id="rect5749"
       style="fill:#b3b3b3;fill-opacity:1;fill-rule:nonzero" />
    <rect
       width="8.387249"
       height="7.5560803"
       x="763.383"
       y="696.94958"
       transform="matrix(0.70110907,0.71305405,-0.71305405,0.70110907,0,0)"
       id="rect5751"
       style="fill:#b3b3b3;fill-opacity:1;fill-rule:nonzero" />
    <rect
       width="7.0271544"
       height="9.4451008"
       x="269.37778"
       y="968.91614"
       transform="matrix(0.97546458,0.22015644,-0.22015644,0.97546458,0,0)"
       id="rect5753"
       style="fill:#666666;fill-opacity:1;fill-rule:nonzero" />
    <rect
       width="4.6847696"
       height="7.707202"
       x="479.06946"
       y="868.08868"
       transform="matrix(0.89097574,0.45405092,-0.45405092,0.89097574,0,0)"
       id="rect5755"
       style="fill:#666666;fill-opacity:1;fill-rule:nonzero" />
    <rect
       width="4.4580874"
       height="4.9114523"
       x="-638.73492"
       y="766.36115"
       transform="matrix(0.76065351,-0.6491581,0.6491581,0.76065351,0,0)"
       id="rect5757"
       style="fill:#666666;fill-opacity:1;fill-rule:nonzero" />
    <rect
       width="3.7780402"
       height="6.3471074"
       x="-691.73926"
       y="759.17096"
       transform="matrix(0.72423163,-0.68955677,0.68955677,0.72423163,0,0)"
       id="rect5761"
       style="fill:#666666;fill-opacity:1;fill-rule:nonzero" />
    <rect
       width="4.6092091"
       height="2.4935064"
       x="742.78058"
       y="719.73029"
       transform="matrix(0.71371924,0.7004319,-0.7004319,0.71371924,0,0)"
       id="rect5763"
       style="fill:#666666;fill-opacity:1;fill-rule:nonzero" />
    <rect
       width="4.2314048"
       height="3.3246753"
       x="-647.62567"
       y="822.87885"
       transform="matrix(0.76199256,-0.64758578,0.64758578,0.76199256,0,0)"
       id="rect5765"
       style="fill:#666666;fill-opacity:1;fill-rule:nonzero" />
    <rect
       width="7.4049587"
       height="6.5737901"
       x="-664.74335"
       y="805.32477"
       transform="matrix(0.74141236,-0.67104971,0.67104971,0.74141236,0,0)"
       id="rect5767"
       style="fill:#666666;fill-opacity:1;fill-rule:nonzero" />
    <rect
       width="5.0625739"
       height="8.0094452"
       x="55.763874"
       y="57.50177"
       transform="translate(0,988.36218)"
       id="rect5769"
       style="fill:#666666;fill-opacity:1;fill-rule:nonzero" />
    <rect
       width="6.0448642"
       height="13.223141"
       x="-175.21207"
       y="996.84424"
       transform="matrix(0.97393275,-0.22683693,0.22683693,0.97393275,0,0)"
       id="rect5771"
       style="fill:#666666;fill-opacity:1;fill-rule:nonzero" />
    <rect
       width="7.1782761"
       height="5.4403777"
       x="48.283352"
       y="14.12987"
       transform="translate(0,988.36218)"
       id="rect5773"
       style="fill:#666666;fill-opacity:1;fill-rule:nonzero" />
    <rect
       width="7.1027155"
       height="4.4580874"
       x="-602.04187"
       y="791.18768"
       transform="matrix(0.77091217,-0.63694146,0.63694146,0.77091217,0,0)"
       id="rect5775"
       style="fill:#666666;fill-opacity:1;fill-rule:nonzero" />
    <rect
       width="11.485242"
       height="6.2715468"
       x="327.64865"
       y="947.42694"
       transform="matrix(0.95425471,0.29899489,-0.29899489,0.95425471,0,0)"
       id="rect5777"
       style="fill:#666666;fill-opacity:1;fill-rule:nonzero" />
    <rect
       width="4.8358912"
       height="10.805195"
       x="-357.39938"
       y="927.47485"
       transform="matrix(0.92578874,-0.37804127,0.37804127,0.92578874,0,0)"
       id="rect5779"
       style="fill:#666666;fill-opacity:1;fill-rule:nonzero" />
    <rect
       width="11.863046"
       height="2.3423848"
       x="797.97961"
       y="586.29199"
       transform="matrix(0.59416175,0.80434558,-0.80434558,0.59416175,0,0)"
       id="rect5781"
       style="fill:#666666;fill-opacity:1;fill-rule:nonzero" />
    <rect
       width="5.5914993"
       height="7.3293977"
       x="636.32367"
       y="786.81036"
       transform="matrix(0.78125654,0.62421008,-0.62421008,0.78125654,0,0)"
       id="rect5783"
       style="fill:#666666;fill-opacity:1;fill-rule:nonzero" />
    <rect
       width="5.1381345"
       height="5.2892561"
       x="-665.50299"
       y="787.62958"
       transform="matrix(0.75811777,-0.65211767,0.65211767,0.75811777,0,0)"
       id="rect5785"
       style="fill:#666666;fill-opacity:1;fill-rule:nonzero" />
    <rect
       width="5.4403777"
       height="5.8937426"
       x="53.755142"
       y="994.21472"
       id="rect5787"
       style="fill:#e6e6e6;fill-opacity:1;fill-rule:nonzero" />
    <rect
       width="4.4580874"
       height="4.3825264"
       x="451.64645"
       y="923.987"
       transform="matrix(0.91134332,0.41164712,-0.41164712,0.91134332,0,0)"
       id="rect5789"
       style="fill:#e6e6e6;fill-opacity:1;fill-rule:nonzero" />
    <rect
       width="5.2136955"
       height="4.7603307"
       x="289.39673"
       y="991.71594"
       transform="matrix(0.97007619,0.24280071,-0.24280071,0.97007619,0,0)"
       id="rect5791"
       style="fill:#e6e6e6;fill-opacity:1;fill-rule:nonzero" />
    <rect
       width="16.899551"
       height="15.281508"
       x="404.87503"
       y="946.42004"
       transform="matrix(0.92157412,0.38820244,-0.38820244,0.92157412,0,0)"
       id="rect5793"
       style="fill:#e6e6e6;fill-opacity:1;fill-rule:nonzero" />
    <rect
       width="4.9114523"
       height="4.4580874"
       x="-499.29044"
       y="857.7735"
       transform="matrix(0.85811912,-0.51345065,0.51345065,0.85811912,0,0)"
       id="rect5795"
       style="fill:#e6e6e6;fill-opacity:1;fill-rule:nonzero" />
    <rect
       width="4.6847696"
       height="4.6092091"
       x="-380.3197"
       y="927.03729"
       transform="matrix(0.91591217,-0.40137875,0.40137875,0.91591217,0,0)"
       id="rect5797"
       style="fill:#e6e6e6;fill-opacity:1;fill-rule:nonzero" />
    <rect
       width="6.4226685"
       height="5.3648171"
       x="336.58707"
       y="939.80145"
       transform="matrix(0.95442646,0.2984462,-0.2984462,0.95442646,0,0)"
       id="rect5799"
       style="fill:#e6e6e6;fill-opacity:1;fill-rule:nonzero" />
    <rect
       width="5.5914993"
       height="5.6670604"
       x="469.01895"
       y="897.69666"
       transform="matrix(0.89645341,0.443138,-0.443138,0.89645341,0,0)"
       id="rect5801"
       style="fill:#e6e6e6;fill-opacity:1;fill-rule:nonzero" />
    <rect
       width="22.315174"
       height="22.652187"
       x="429.89496"
       y="930.43658"
       transform="matrix(0.91755808,0.39760177,-0.41044012,0.91188755,0,0)"
       id="rect5759-2"
       style="fill:#666666;fill-opacity:1;fill-rule:nonzero" />
    <rect
       width="21.000065"
       height="21.591616"
       x="380.07938"
       y="955.14868"
       transform="matrix(0.94227236,0.33484743,-0.33484743,0.94227236,0,0)"
       id="rect5759-9"
       style="fill:#666666;fill-opacity:1;fill-rule:nonzero" />
  </g>
</svg>
