<?xml version="1.0" encoding="UTF-8" standalone="no"?>
<!-- Created with Inkscape (http://www.inkscape.org/) -->

<svg
   xmlns:dc="http://purl.org/dc/elements/1.1/"
   xmlns:cc="http://creativecommons.org/ns#"
   xmlns:rdf="http://www.w3.org/1999/02/22-rdf-syntax-ns#"
   xmlns:svg="http://www.w3.org/2000/svg"
   xmlns="http://www.w3.org/2000/svg"
   version="1.1"
   width="64"
   height="64"
   id="svg2">
  <defs
     id="defs4" />
  <metadata
     id="metadata7">
    <rdf:RDF>
      <cc:Work
         rdf:about="">
        <dc:format>image/svg+xml</dc:format>
        <dc:type
           rdf:resource="http://purl.org/dc/dcmitype/StillImage" />
        <dc:title />
      </cc:Work>
    </rdf:RDF>
  </metadata>
  <g
     id="layer2" />
  <rect
     width="63.999996"
     height="64.075562"
     x="-0.27118644"
     y="0.19562919"
     id="rect5691"
     style="fill:#333333;fill-opacity:1;fill-rule:nonzero" />
  <rect
     width="12.618654"
     height="11.031878"
     x="0.58640826"
     y="16.834936"
     transform="matrix(0.90030706,-0.43525532,0.43525532,0.90030706,0,0)"
     id="rect5715"
     style="fill:#c87137;fill-opacity:1;fill-rule:nonzero" />
  <rect
     width="26.666498"
     height="20.888758"
     x="12.475807"
     y="37.779568"
     transform="matrix(0.94237003,-0.33457245,0.33457245,0.94237003,0,0)"
     id="rect5717"
     style="fill:#c87137;fill-opacity:1;fill-rule:nonzero" />
  <rect
     width="4.2314048"
     height="14.809917"
     x="19.959532"
     y="42.41872"
     transform="matrix(0.94545104,0.32576422,-0.32576422,0.94545104,0,0)"
     id="rect5719"
     style="fill:#c87137;fill-opacity:1;fill-rule:nonzero" />
  <rect
     width="15.716647"
     height="9.2184181"
     x="1.6327716"
     y="59.414806"
     transform="matrix(0.92892751,-0.37026163,0.37026163,0.92892751,0,0)"
     id="rect5721"
     style="fill:#c87137;fill-opacity:1;fill-rule:nonzero" />
  <rect
     width="15.414404"
     height="23.8487"
     x="41.060574"
     y="-0.106615"
     id="rect5723"
     style="fill:#c87137;fill-opacity:1;fill-rule:nonzero" />
  <rect
     width="27.803303"
     height="41.190075"
     x="0.30599752"
     y="-8.4472923"
     transform="matrix(0.96378537,0.26667914,-0.26667914,0.96378537,0,0)"
     id="rect5725"
     style="fill:#c87137;fill-opacity:1;fill-rule:nonzero" />
  <rect
     width="4.533648"
     height="4.2314048"
     x="35.820168"
     y="14.753233"
     transform="matrix(0.82587813,0.56384866,-0.56384866,0.82587813,0,0)"
     id="rect5729"
     style="fill:#b3b3b3;fill-opacity:1;fill-rule:nonzero" />
  <rect
     width="19.429985"
     height="19.888962"
     x="2.8725188"
     y="27.851152"
     transform="matrix(0.80095747,-0.59872125,0.59872125,0.80095747,0,0)"
     id="rect5731"
     style="fill:#b3b3b3;fill-opacity:1;fill-rule:nonzero" />
  <rect
     width="13.374262"
     height="11.513494"
     x="21.11252"
     y="24.299513"
     id="rect5733"
     style="fill:#b3b3b3;fill-opacity:1;fill-rule:nonzero" />
  <rect
     width="12.316411"
     height="10.35183"
     x="-11.806671"
     y="70.364799"
     transform="matrix(0.60365214,-0.79724782,0.79724782,0.60365214,0,0)"
     id="rect5735"
     style="fill:#b3b3b3;fill-opacity:1;fill-rule:nonzero" />
  <rect
     width="8.0094452"
     height="10.125148"
     x="36.47858"
     y="34.761169"
     transform="matrix(0.92171792,0.3878609,-0.3878609,0.92171792,0,0)"
     id="rect5737"
     style="fill:#b3b3b3;fill-opacity:1;fill-rule:nonzero" />
  <rect
     width="14.885478"
     height="13.827627"
     x="51.040939"
     y="20.889236"
     transform="matrix(0.98864422,0.15027509,-0.15027509,0.98864422,0,0)"
     id="rect5739"
     style="fill:#b3b3b3;fill-opacity:1;fill-rule:nonzero" />
  <rect
     width="6.9515939"
     height="10.502952"
     x="53.981468"
     y="5.8626895"
     id="rect5741"
     style="fill:#b3b3b3;fill-opacity:1;fill-rule:nonzero" />
  <rect
     width="7.5560803"
     height="9.9740257"
     x="21.239897"
     y="-5.6170192"
     transform="matrix(0.85499746,0.51863219,-0.51863219,0.85499746,0,0)"
     id="rect5743"
     style="fill:#b3b3b3;fill-opacity:1;fill-rule:nonzero" />
  <rect
     width="16.254383"
     height="28.411022"
     x="-5.4872851"
     y="8.5298138"
     transform="matrix(0.92381616,-0.38283639,0.38283639,0.92381616,0,0)"
     id="rect5745"
     style="fill:#b3b3b3;fill-opacity:1;fill-rule:nonzero" />
  <rect
     width="9.8229046"
     height="9.4451008"
     x="-15.670892"
     y="26.396355"
     transform="matrix(0.86741436,-0.49758651,0.49758651,0.86741436,0,0)"
     id="rect5747"
     style="fill:#b3b3b3;fill-opacity:1;fill-rule:nonzero" />
  <rect
     width="6.9515939"
     height="7.3293977"
     x="-21.665146"
     y="40.386784"
     transform="matrix(0.83886489,-0.54433969,0.54433969,0.83886489,0,0)"
     id="rect5749"
     style="fill:#b3b3b3;fill-opacity:1;fill-rule:nonzero" />
  <rect
     width="8.387249"
     height="7.5560803"
     x="58.630589"
     y="4.3834047"
     transform="matrix(0.70110907,0.71305405,-0.71305405,0.70110907,0,0)"
     id="rect5751"
     style="fill:#b3b3b3;fill-opacity:1;fill-rule:nonzero" />
  <rect
     width="7.0271544"
     height="9.4451008"
     x="42.90873"
     y="14.629731"
     transform="matrix(0.97546458,0.22015644,-0.22015644,0.97546458,0,0)"
     id="rect5753"
     style="fill:#666666;fill-opacity:1;fill-rule:nonzero" />
  <rect
     width="4.6847696"
     height="7.707202"
     x="30.184217"
     y="-12.153278"
     transform="matrix(0.89097574,0.45405092,-0.45405092,0.89097574,0,0)"
     id="rect5755"
     style="fill:#666666;fill-opacity:1;fill-rule:nonzero" />
  <rect
     width="4.4580874"
     height="4.9114523"
     x="2.4860659"
     y="14.590223"
     transform="matrix(0.76065351,-0.6491581,0.6491581,0.76065351,0,0)"
     id="rect5757"
     style="fill:#666666;fill-opacity:1;fill-rule:nonzero" />
  <rect
     width="27.732035"
     height="28.513218"
     x="34.07806"
     y="15.789877"
     transform="matrix(0.91476347,0.40398984,-0.40398984,0.91476347,0,0)"
     id="rect5759"
     style="fill:#666666;fill-opacity:1;fill-rule:nonzero" />
  <rect
     width="3.7780402"
     height="6.3471074"
     x="-10.590823"
     y="43.377209"
     transform="matrix(0.72423163,-0.68955677,0.68955677,0.72423163,0,0)"
     id="rect5761"
     style="fill:#666666;fill-opacity:1;fill-rule:nonzero" />
  <rect
     width="4.6092091"
     height="2.4935064"
     x="50.496578"
     y="14.700683"
     transform="matrix(0.71371924,0.7004319,-0.7004319,0.71371924,0,0)"
     id="rect5763"
     style="fill:#666666;fill-opacity:1;fill-rule:nonzero" />
  <rect
     width="4.2314048"
     height="3.3246753"
     x="-7.9586415"
     y="69.785248"
     transform="matrix(0.76199256,-0.64758578,0.64758578,0.76199256,0,0)"
     id="rect5765"
     style="fill:#666666;fill-opacity:1;fill-rule:nonzero" />
  <rect
     width="7.4049587"
     height="6.5737901"
     x="-1.8862364"
     y="72.559914"
     transform="matrix(0.74141236,-0.67104971,0.67104971,0.74141236,0,0)"
     id="rect5767"
     style="fill:#666666;fill-opacity:1;fill-rule:nonzero" />
  <rect
     width="5.0625739"
     height="8.0094452"
     x="55.492687"
     y="57.772961"
     id="rect5769"
     style="fill:#666666;fill-opacity:1;fill-rule:nonzero" />
  <rect
     width="6.0448642"
     height="13.223141"
     x="48.659344"
     y="34.448544"
     transform="matrix(0.97393275,-0.22683693,0.22683693,0.97393275,0,0)"
     id="rect5771"
     style="fill:#666666;fill-opacity:1;fill-rule:nonzero" />
  <rect
     width="7.1782761"
     height="5.4403777"
     x="48.012165"
     y="14.40106"
     id="rect5773"
     style="fill:#666666;fill-opacity:1;fill-rule:nonzero" />
  <rect
     width="7.1027155"
     height="4.4580874"
     x="27.105188"
     y="29.283583"
     transform="matrix(0.77091217,-0.63694146,0.63694146,0.77091217,0,0)"
     id="rect5775"
     style="fill:#666666;fill-opacity:1;fill-rule:nonzero" />
  <rect
     width="11.485242"
     height="6.2715468"
     x="31.955711"
     y="4.6175394"
     transform="matrix(0.95425471,0.29899489,-0.29899489,0.95425471,0,0)"
     id="rect5777"
     style="fill:#666666;fill-opacity:1;fill-rule:nonzero" />
  <rect
     width="4.8358912"
     height="10.805195"
     x="15.88873"
     y="12.608814"
     transform="matrix(0.92578874,-0.37804127,0.37804127,0.92578874,0,0)"
     id="rect5779"
     style="fill:#666666;fill-opacity:1;fill-rule:nonzero" />
  <rect
     width="11.863046"
     height="2.3423848"
     x="22.737959"
     y="0.85112625"
     transform="matrix(0.59416175,0.80434558,-0.80434558,0.59416175,0,0)"
     id="rect5781"
     style="fill:#666666;fill-opacity:1;fill-rule:nonzero" />
  <rect
     width="5.5914993"
     height="7.3293977"
     x="19.335451"
     y="15.027097"
     transform="matrix(0.78125654,0.62421008,-0.62421008,0.78125654,0,0)"
     id="rect5783"
     style="fill:#666666;fill-opacity:1;fill-rule:nonzero" />
  <rect
     width="5.1381345"
     height="5.2892561"
     x="-21.356993"
     y="38.3634"
     transform="matrix(0.75811777,-0.65211767,0.65211767,0.75811777,0,0)"
     id="rect5785"
     style="fill:#666666;fill-opacity:1;fill-rule:nonzero" />
  <rect
     width="5.4403777"
     height="5.8937426"
     x="56.550537"
     y="2.6891356"
     id="rect5787"
     style="fill:#e6e6e6;fill-opacity:1;fill-rule:nonzero" />
  <rect
     width="4.4580874"
     height="4.3825264"
     x="44.654499"
     y="23.608507"
     transform="matrix(0.91134332,0.41164712,-0.41164712,0.91134332,0,0)"
     id="rect5789"
     style="fill:#e6e6e6;fill-opacity:1;fill-rule:nonzero" />
  <rect
     width="5.2136955"
     height="4.7603307"
     x="49.224464"
     y="33.258244"
     transform="matrix(0.97007619,0.24280071,-0.24280071,0.97007619,0,0)"
     id="rect5791"
     style="fill:#e6e6e6;fill-opacity:1;fill-rule:nonzero" />
  <rect
     width="16.899551"
     height="15.281508"
     x="21.045776"
     y="35.926228"
     transform="matrix(0.92157412,0.38820244,-0.38820244,0.92157412,0,0)"
     id="rect5793"
     style="fill:#e6e6e6;fill-opacity:1;fill-rule:nonzero" />
  <rect
     width="4.9114523"
     height="4.4580874"
     x="7.8128181"
     y="9.7344818"
     transform="matrix(0.85811912,-0.51345065,0.51345065,0.85811912,0,0)"
     id="rect5795"
     style="fill:#e6e6e6;fill-opacity:1;fill-rule:nonzero" />
  <rect
     width="4.6847696"
     height="4.6092091"
     x="16.03064"
     y="21.923885"
     transform="matrix(0.91591217,-0.40137875,0.40137875,0.91591217,0,0)"
     id="rect5797"
     style="fill:#e6e6e6;fill-opacity:1;fill-rule:nonzero" />
  <rect
     width="6.4226685"
     height="5.3648171"
     x="41.436237"
     y="-3.1777968"
     transform="matrix(0.95442646,0.2984462,-0.2984462,0.95442646,0,0)"
     id="rect5799"
     style="fill:#e6e6e6;fill-opacity:1;fill-rule:nonzero" />
  <rect
     width="5.5914993"
     height="5.6670604"
     x="33.082539"
     y="5.9051385"
     transform="matrix(0.89645341,0.443138,-0.443138,0.89645341,0,0)"
     id="rect5801"
     style="fill:#e6e6e6;fill-opacity:1;fill-rule:nonzero" />
</svg>
