<?xml version="1.0" encoding="UTF-8" standalone="no"?>
<!-- Created with Inkscape (http://www.inkscape.org/) -->

<svg
   xmlns:dc="http://purl.org/dc/elements/1.1/"
   xmlns:cc="http://creativecommons.org/ns#"
   xmlns:rdf="http://www.w3.org/1999/02/22-rdf-syntax-ns#"
   xmlns:svg="http://www.w3.org/2000/svg"
   xmlns="http://www.w3.org/2000/svg"
   xmlns:inkscape="http://www.inkscape.org/namespaces/inkscape"
   version="1.1"
   width="64"
   height="64"
   id="svg2">
  <defs
     id="defs4" />
  <metadata
     id="metadata7">
    <rdf:RDF>
      <cc:Work
         rdf:about="">
        <dc:format>image/svg+xml</dc:format>
        <dc:type
           rdf:resource="http://purl.org/dc/dcmitype/StillImage" />
        <dc:title />
      </cc:Work>
    </rdf:RDF>
  </metadata>
  <g
     id="layer2" />
  <path
     d="m 64,32.271187 c 0.04036,2.87319 -0.301548,5.658758 -0.976938,8.310274 -0.700217,2.748987 -1.758888,5.353885 -3.121661,7.762953 -1.384302,2.447128 -3.082391,4.69219 -5.037295,6.680954 -1.958988,1.992918 -4.175866,3.728466 -6.593305,5.15207 -2.391388,1.408262 -4.979038,2.511268 -7.707455,3.25619 -2.648344,0.72306 -5.429314,1.108746 -8.292159,1.108746 -2.855136,0 -5.668484,-0.385911 -8.370321,-1.108688 -2.74495,-0.734309 -5.374802,-1.81632 -7.816446,-3.194599 C 13.609924,58.842263 11.328736,57.141144 9.3169586,55.189266 7.2797392,53.212704 5.5187872,50.979001 4.1131296,48.543749 2.7074871,46.108524 1.6571312,43.471755 1.0410862,40.689033 0.44632495,38.002451 0.25638298,35.179827 0.54237366,32.271187 0.87292222,28.909376 1.6008725,25.647707 2.6821684,22.571847 3.8034392,19.382274 5.3046647,16.392502 7.1367194,13.698054 9.0338171,10.907947 11.285652,8.4345059 13.837678,6.3837943 16.430347,4.3004238 19.332845,2.6533543 22.487979,1.5537972 25.531133,0.49326517 28.809308,-0.05792905 32.271187,0 c 3.418962,0.05721088 6.711702,0.67070968 9.797331,1.751407 3.170478,1.1104145 6.122299,2.7140749 8.767713,4.7143386 2.656446,2.0086048 5.003925,4.4171274 6.953587,7.1277114 1.934002,2.688812 3.476553,5.674853 4.540924,8.862605 1.038192,3.109345 1.621439,6.410601 1.669258,9.815125 0,0 0,0 0,0"
     inkscape:connector-curvature="0"
     transform="matrix(1.008547,0,0,0.99159663,-0.54700934,0)"
     id="path6926"
     style="fill:#333333;fill-opacity:1;fill-rule:nonzero;stroke:none" />
  <path
     d="m 48,30.915255 c 0.225542,3.275326 -0.569429,6.349477 -2.088609,8.994741 -1.548157,2.695719 -3.848412,4.946035 -6.587184,6.509956 -2.664893,1.521735 -5.744964,2.393608 -8.951326,2.393608 -3.304878,0 -6.177881,-0.945503 -8.605859,-2.573814 -2.455484,-1.646758 -4.455804,-3.991883 -5.987359,-6.763651 -1.415016,-2.56086 -2.429892,-5.485905 -3.033901,-8.56084 -0.727532,-3.703775 -0.256687,-6.930191 1.056052,-9.586642 1.458173,-2.950752 3.955117,-5.198254 7.002255,-6.615586 2.842941,-1.322353 6.164808,-1.922071 9.568812,-1.696078 3.119666,0.207115 6.046224,1.209566 8.585785,2.806394 2.570538,1.616306 4.744581,3.841578 6.321056,6.467415 1.536199,2.558752 2.504975,5.497862 2.720278,8.624497 0,0 0,0 0,0"
     inkscape:connector-curvature="0"
     transform="matrix(1.3615384,0,0,1.340909,-9.3538442,-9.4545426)"
     id="path7436"
     style="fill:#c87137;fill-opacity:1;fill-rule:nonzero;stroke:none" />
  <path
     d="m 64,32.271187 c 0,2.865324 -0.367153,5.64343 -1.05622,8.288303 -0.714517,2.74256 -1.775166,5.341864 -3.131507,7.746611 -1.381318,2.449029 -3.069317,4.696268 -5.010721,6.68753 -1.94994,2.000017 -4.155516,3.7418 -6.562746,5.170443 -2.382282,1.413837 -4.96206,2.520991 -7.68701,3.268246 -2.639816,0.723908 -5.415876,1.110054 -8.280609,1.110054 -2.864228,0 -5.639813,-0.38601 -8.279211,-1.109671 C 21.266625,62.685475 18.686477,61.578247 16.303872,60.164254 13.896492,58.735559 11.690787,56.993687 9.7407472,54.993555 7.7993514,53.002288 6.1113602,50.755045 4.7300515,48.306014 3.3738137,45.901433 2.3132267,43.302322 1.5987197,40.559974 0.90957167,37.914956 0.54237366,35.136686 0.54237366,32.271187 c 0,-2.865325 0.36715325,-5.64343 1.05622004,-8.288304 0.714517,-2.74256 1.775166,-5.341864 3.1315072,-7.746611 C 6.1114181,13.787244 7.7994178,11.540004 9.7408219,9.5487422 11.690761,7.548726 13.896338,5.8069431 16.303568,4.3782999 18.68585,2.9644631 21.265627,1.8573089 23.990578,1.1100544 26.630394,0.38614588 29.406454,0 32.271187,0 c 2.864227,0 5.686419,0.22879137 8.279211,1.1096711 5.388525,1.830707 5.174983,2.1115676 7.688104,3.2684485 3.654825,1.6824492 5.332493,3.3169079 6.563124,5.1706993 1.542867,2.3241341 3.629387,4.2385101 5.010696,6.6875411 1.356238,2.404581 2.416825,5.003691 3.131332,7.74604 C 63.632802,26.627418 64,29.405688 64,32.271187 l 0,0"
     inkscape:connector-curvature="0"
     transform="matrix(0.50427351,0,0,0.49579831,15.726496,16)"
     id="path6926-7"
     style="fill:#333333;fill-opacity:1;fill-rule:nonzero;stroke:none" />
</svg>
