<?xml version="1.0" encoding="UTF-8" standalone="no"?>
<!-- Created with Inkscape (http://www.inkscape.org/) -->

<svg
   xmlns:dc="http://purl.org/dc/elements/1.1/"
   xmlns:cc="http://creativecommons.org/ns#"
   xmlns:rdf="http://www.w3.org/1999/02/22-rdf-syntax-ns#"
   xmlns:svg="http://www.w3.org/2000/svg"
   xmlns="http://www.w3.org/2000/svg"
   xmlns:inkscape="http://www.inkscape.org/namespaces/inkscape"
   version="1.1"
   width="64"
   height="64"
   id="svg2">
  <defs
     id="defs4" />
  <metadata
     id="metadata7">
    <rdf:RDF>
      <cc:Work
         rdf:about="">
        <dc:format>image/svg+xml</dc:format>
        <dc:type
           rdf:resource="http://purl.org/dc/dcmitype/StillImage" />
        <dc:title />
      </cc:Work>
    </rdf:RDF>
  </metadata>
  <g
     id="layer2" />
  <path
     d="M 63.999999,31.999998 C 64.10042,43.27922 57.790129,53.512684 49.570943,58.748677 36.016834,67.700398 17.215354,65.187828 6.5894205,51.452694 0.62477276,43.966737 -1.7067625,32.58951 1.3240363,22.860918 5.0346151,10.44113 15.569345,2.3144476 26.33547,0.49980554 38.59443,-1.7764918 52.280569,3.5024206 59.565757,15.738016 c 2.820164,4.732961 4.453719,10.462291 4.434242,16.261982 z"
     inkscape:connector-curvature="0"
     id="path2996"
     style="fill:#241c1c;fill-opacity:1;fill-rule:nonzero;stroke:none" />
  <path
     d="M 56.000001,32.000001 C 56.149493,42.932744 48.163822,52.581671 38.570295,55.089547 27.982456,58.276403 15.466792,53.176841 10.366662,42.404995 5.9642869,33.694608 7.9293153,22.134272 14.627154,15.44143 23.687141,5.7078838 39.707795,5.5366708 48.970565,15.02944 c 4.355669,4.299314 7.072212,10.554942 7.029436,16.970561 z"
     inkscape:connector-curvature="0"
     id="path2998"
     style="fill:#c87137;fill-opacity:1;fill-rule:nonzero;stroke:none" />
  <path
     d="m 48.000001,31.999999 c 0.08953,6.360755 -4.110157,13.376881 -12.001352,15.496277 -6.490891,1.797593 -13.626945,-1.29635 -16.820015,-5.923222 -5.468016,-7.355037 -3.937785,-18.183339 4.857255,-23.453239 5.169265,-3.224638 12.975829,-2.6204 17.537167,1.058817 4.333339,3.259495 6.435464,8.116226 6.426945,12.821367 z"
     inkscape:connector-curvature="0"
     id="path3000"
     style="fill:#241c1c;fill-opacity:1;fill-rule:nonzero;stroke:none" />
</svg>
