<?xml version="1.0" encoding="UTF-8" standalone="no"?>
<!-- Created with Inkscape (http://www.inkscape.org/) -->

<svg
   xmlns:dc="http://purl.org/dc/elements/1.1/"
   xmlns:cc="http://creativecommons.org/ns#"
   xmlns:rdf="http://www.w3.org/1999/02/22-rdf-syntax-ns#"
   xmlns:svg="http://www.w3.org/2000/svg"
   xmlns="http://www.w3.org/2000/svg"
   xmlns:inkscape="http://www.inkscape.org/namespaces/inkscape"
   version="1.1"
   width="64"
   height="64"
   id="svg2">
  <defs
     id="defs4" />
  <metadata
     id="metadata7">
    <rdf:RDF>
      <cc:Work
         rdf:about="">
        <dc:format>image/svg+xml</dc:format>
        <dc:type
           rdf:resource="http://purl.org/dc/dcmitype/StillImage" />
        <dc:title />
      </cc:Work>
    </rdf:RDF>
  </metadata>
  <g
     id="layer2" />
  <g
     transform="translate(0,-988.36218)"
     id="layer1">
    <path
       d="m 52.859261,1005.8266 c -0.40708,0 -0.81408,0 -1.22118,0 -0.5761,0 -1.1522,0 -1.7284,0 -0.3801,0.01 -0.7612,-0.012 -1.1413,0 -0.015,5e-4 -0.029,0.01 -0.044,0.011 -0.074,0.01 -0.1486,0.013 -0.2229,0.019 -0.8336,0.061 -1.6646,0.1481 -2.4966,0.2269 -1.1615,0.126 -2.3246,0.2407 -3.4752,0.4468 -1.2503,0.2562 -2.4975,0.5251 -3.7522,0.7599 -1.1445,0.2156 -2.3037,0.3328 -3.4653,0.4006 -0.5017,0.028 -1.0042,0.031 -1.5065,0.029 -0.3333,0 -0.6666,0 -0.9999,0 -0.5499,0 -1.0989,-0.042 -1.6486,-0.057 -0.7994,-0.017 -1.5989,-0.018 -2.3984,-0.019 -0.7961,0 -1.5921,-7e-4 -2.3882,-5e-4 -0.6135,2e-4 -1.2271,3e-4 -1.8406,3e-4 -0.3901,10e-5 -0.7802,10e-5 -1.1703,10e-5 -0.5056,0 -1.0113,0 -1.5169,0 -0.6115,0.01 -1.2222,-0.034 -1.8301,-0.096 -0.4659,-0.05 -0.9344,-0.027 -1.4016,-0.017 -0.739,0.03 -1.4774,0 -2.2121,-0.078 -0.1538,-0.023 -0.3082,-0.031 -0.4633,-0.034 -0.1991,0 -0.3983,0 -0.5975,0 -0.1838,-0.01 -0.8323,0.021 -0.037,-0.017 -0.4493,0.037 -0.9126,0.066 -1.3562,-0.05 -0.3973,-0.1042 -0.7767,-0.2697 -1.1549,-0.43 -0.2727,-0.1157 -0.7604,-0.5665 -0.9037,-0.6853 0.8099,0.7967 2.0588,1.1944 3.187,0.9355 0.5554,-0.1275 1.0383,-0.4699 1.5575,-0.7048 0.8722,-0.9758 0.7533,-0.6485 1.1357,-1.5096 0.01,-0.013 -0.01,0.027 -0.012,0.04 -0.023,0.07 -0.047,0.1395 -0.071,0.2092 -0.2254,0.8093 -0.3706,1.6402 -0.4983,2.4702 -0.2227,1.387 -0.3407,2.7875 -0.4198,4.1892 -0.036,0.6202 -0.041,1.2415 -0.041,1.8626 -0.019,0.7988 -0.119,1.5919 -0.1744,2.3883 -0.079,0.7517 -0.091,1.5073 -0.1331,2.2612 -0.071,0.9786 -0.1042,1.959 -0.1257,2.9397 -0.01,0.5282 -0.015,1.0565 -0.016,1.5848 10e-5,0.2429 7e-4,0.4859 9e-4,0.7288 3e-4,0.3603 3e-4,0.7206 4e-4,1.0808 -0.012,0.2867 0.01,0.5497 0.025,0.83 0.026,0.3711 0.04,0.7428 0.047,1.1146 0,0.2084 0,0.4168 0,0.6252 0,0.026 0,0.052 0,0.079 -10e-5,0.076 -10e-5,0.075 -2e-4,0.1512 0,0.025 0,0.099 -10e-5,0.074 -0.039,-0.5702 0,-0.275 -0.051,-0.612 0.075,0.341 0.1033,0.6892 0.1188,1.0373 0.01,0.3177 0.01,0.6358 0.01,0.9537 -10e-5,0.3972 -3e-4,0.7945 -4e-4,1.1917 0,-0.015 -0.01,-0.056 0,-0.045 0.012,0.014 0,0.037 0.01,0.055 0,0.034 6e-4,0.069 0.01,0.1012 0.01,0.03 -0.038,-0.086 -0.01,-0.093 0.03,-0.01 0.01,0.061 0.015,0.091 0.01,0.065 0.019,0.1295 0.029,0.1942 0.068,0.3529 0.1038,0.7108 0.148,1.0672 0.053,0.4064 0.079,0.8153 0.093,1.2247 0.01,0.296 0.01,0.592 0.01,0.888 -3e-4,0.1947 -6e-4,0.3893 -8e-4,0.584 0,0.3063 -0.052,0.6074 -0.068,0.9125 -0.01,0.1309 -0.01,0.2619 -0.01,0.3929 0.012,0.2269 -0.07,1.2122 -0.02,0.5676 0,-0.058 0,-0.1159 0.01,-0.1738 -0.034,-0.2947 -0.029,-0.5964 -0.102,-0.884 -0.2612,-1.0345 -0.9512,-1.907 -1.9116,-2.367 0.016,0.01 0.062,0.024 0.047,0.018 -0.2809,-0.1188 0.1,0.026 0.019,0 -0.031,-0.012 -0.06,-0.019 -0.092,-0.028 -0.01,0 -0.015,-8e-4 -0.019,-0.01 -0.012,-0.016 0.039,0 0.059,-4e-4 0.2009,0.015 0.401,0.037 0.6015,0.055 0.237,0.019 0.4749,0.02 0.7124,0.022 0.4417,0.016 0.8823,0.051 1.324,0.066 0.4398,0.01 0.8788,0.013 1.3178,0.041 0.4186,0.027 0.8375,0.042 1.2558,0.074 0.4164,0.023 0.831,0.07 1.2472,0.097 0.3944,0.02 0.7869,0.065 1.1812,0.086 0.4635,0.01 0.9243,0.054 1.3842,0.1086 0.3404,0.059 0.6812,0.1029 1.0261,0.1196 0.3868,0.014 0.774,0.014 1.1611,0.015 0.4249,10e-5 0.8497,-5e-4 1.2746,-8e-4 0.4092,-3e-4 0.8185,-4e-4 1.2278,-4e-4 0.304,0 0.6073,0 0.9102,-0.015 0.3868,-0.027 0.7741,-0.036 1.1604,-0.066 0.511,-0.035 1.0218,-0.071 1.5326,-0.11 0.7615,-0.089 1.5226,-0.1806 2.2827,-0.2819 0.8008,-0.1081 1.6079,-0.1481 2.4118,-0.2245 0.5674,-0.063 1.1351,-0.1159 1.6996,-0.2016 0.2737,-0.053 0.5468,-0.111 0.8142,-0.1902 0.5541,-0.1542 1.1179,-0.2667 1.6872,-0.3457 0.4818,-0.061 0.9676,-0.073 1.4526,-0.078 0.372,0 0.7441,-2e-4 1.1161,4e-4 0.3527,5e-4 0.7055,6e-4 1.0582,7e-4 0.3995,-0.01 0.7978,0.014 1.1956,0.048 0.3056,0.013 0.6075,0.063 0.9106,0.1 0.045,0 0.091,0 0.1363,0 0.3289,-0.01 0.656,0.033 0.9835,0.056 0.2876,0.013 0.5747,0.023 0.8622,0.041 0.3839,0.033 0.7646,0.095 1.1443,0.1589 0.2638,0.042 0.527,0.085 0.7899,0.1326 0.3208,0.066 0.5321,0.1145 0.8719,0.1791 0.383,0.078 0.7675,0.1499 1.1527,0.2165 0.27829,0.034 0.55494,0.082 0.83397,0.1108 0.0933,0.01 0.18703,0.012 0.28073,0.013 0.26332,-0.01 0.52512,0.01 0.78823,0.021 0.19044,0.02 0.38058,0.041 0.57192,0.049 0.14036,0.01 0.38992,-0.015 -0.24585,0.01 -0.235,0.01 -0.0536,0 0.0357,-0.011 -1.0827,0.1739 -1.89801,0.7331 -2.50456,1.6487 -0.2629,0.3968 -0.3075,0.6367 -0.4304,1.0552 -0.017,0.1004 -0.036,0.2005 -0.052,0.3013 -0.013,0.088 -0.013,0.1924 -0.013,0.046 0,-0.1537 -10e-5,-0.1506 -4e-4,-0.3211 0,-0.6632 -0.047,-1.3262 -0.1001,-1.9871 -0.1078,-1.1872 -0.1562,-2.3781 -0.185,-3.5694 -0.024,-1.2878 -0.021,-2.576 -0.022,-3.864 0.01,-1.6258 0.063,-3.252 0.1325,-4.8764 0.067,-1.8166 0.1761,-3.6312 0.2483,-5.4476 0.022,-0.924 0.069,-1.8486 0.066,-2.7732 -7e-4,-0.2176 -0.021,-0.5924 -0.031,-0.8099 -0.027,-0.6709 -0.093,-1.3392 -0.1377,-2.0089 -0.046,-0.3909 -0.082,-0.7824 -0.1054,-1.1753 -0.01,-0.2636 -0.03,-0.5267 -0.065,-0.788 -0.01,-0.048 -0.011,-0.096 -0.019,-0.1443 0,-0.029 0.01,0.058 0.01,0.087 4e-4,0.01 -0.01,-0.041 -0.01,-0.031 0.024,0.096 0.047,0.1914 0.072,0.2867 0.01,0.02 0.026,0.077 0.019,0.058 -0.017,-0.042 -0.031,-0.086 -0.046,-0.1285 -0.2751,-0.8079 0.1186,0.2992 0.01,0.013 -0.032,-0.083 -0.063,-0.167 -0.096,-0.2502 -0.018,-0.047 0.084,0.1839 0.054,0.1431 -0.033,-0.044 -0.041,-0.1027 -0.062,-0.1541 -0.071,-0.1485 -0.1238,-0.3062 -0.201,-0.4514 0.1067,0.2604 0.2902,0.4853 0.4954,0.6749 -0.039,0 0.2817,0.1977 0.2209,0.1628 -0.5707,-0.3282 -0.086,-0.056 -0.04,-0.031 0.09,0.04 0.1811,0.075 0.2686,0.1194 0.045,0.023 -0.094,-0.037 -0.1408,-0.055 -0.018,-0.01 0.035,0.015 0.053,0.021 0.046,0.016 0.092,0.034 0.1388,0.047 0.2151,0.062 0.2148,0.058 0.41015,0.094 0.0242,0 0.0485,0.01 0.0726,0.01 0.099,0.017 -0.20053,-0.012 -0.30073,-0.02 -0.2303,-0.018 -0.4595,-0.047 -0.6889,-0.074 -0.4221,-0.071 -0.848,-0.1009 -1.275,-0.1177 -0.7548,-0.014 -1.5093,-0.04 -2.2625,-0.091 -0.7017,-0.07 -1.3995,-0.1758 -2.1021,-0.2381 -0.3951,-0.035 -0.7907,-0.063 -1.1858,-0.097 -1.5556,-0.1165 -3.1089,-0.2623 -4.6656,-0.3643 -1.857,-0.083 -3.7154,-0.1382 -5.5733,-0.1996 -1.7647,-0.07 -3.5272,-0.1775 -5.2902,-0.2791 -1.1463,-0.072 -2.2949,-0.081 -3.4426,-0.1142 -0.9412,-0.036 -1.8829,-0.052 -2.8247,-0.061 -0.9147,-0.01 -1.8295,-0.01 -2.7443,-0.01 -0.157,0 -0.3139,0 -0.4709,10e-5 -0.2628,0 -0.6316,0 -0.8988,0.01 -0.4047,0.018 -0.8101,0.062 -1.2133,0.099 -0.8708,0.1075 -1.735,0.2587 -2.6037,0.3806 -0.8037,0.1102 -1.6137,0.1599 -2.424,0.186 -0.3404,0.01 -0.6811,0.01 -1.0216,0.01 -0.1881,0 -0.3763,0 -0.5644,0 -0.1796,-2e-4 -0.3592,-2e-4 -0.5388,-2e-4 -0.3423,0.011 -0.6796,-0.043 -1.0139002,-0.1059 -0.027,-0.01 0.055,0.01 0.082,0.015 0.2932002,0.028 0.01,0.016 -0.078,0.015 0.06,0 -0.2352,0 -0.1765,-5e-4 0.1118,-0.01 0.2249,0 0.3356,-0.013 0.6416002,-0.098 1.0796002,-0.2112 1.6446002,-0.6067 0.2993,-0.2095 0.5312,-0.5016 0.7968,-0.7524 0.4422,-0.7399 0.4417,-0.6173 0.6536,-1.3749 0.1845,-0.6598 0,-0.1034 0.066,-0.4228 0,-0.015 9e-4,0.032 9e-4,0.047 2e-4,0.066 -2e-4,0.1315 -4e-4,0.1972 -9e-4,1.1991 -0.09,2.3956 -0.228,3.586 -0.1473,0.9941 -0.2765,1.99 -0.3361,2.9935 -0.038,0.7732 -0.038,1.5475 -0.04,2.3214 -2e-4,0.5759 0,1.1518 0,1.7277 8e-4,0.5017 8e-4,1.0033 9e-4,1.505 10e-5,0.4884 0,0.9768 0,1.4652 0.043,0.5829 0.051,1.1678 0.061,1.752 0.035,1.1144 -0.035,2.2275 -0.08,3.3404 -0.04,1.0454 -0.049,2.0916 -0.055,3.1376 0.01,0.567 -0.017,1.1349 0,1.7019 0,0.1377 0.022,0.2746 0.033,0.4119 0.017,0.3479 0.082,0.6893 0.1418,1.0313 0.017,0.051 0.01,0.025 0.03,0.1244 0.031,0.1503 0.06,0.294 0.083,0.4458 0.039,0.2558 0.026,0.3602 0.038,0.2614 0.063,0.3648 0.097,0.7331 0.117,1.1024 0.01,0.1557 0.01,0.1548 0.01,0.3106 9e-4,0.044 0,0.1782 0,0.1337 -0.012,-0.1744 -0.017,-0.3066 0.01,-0.071 0.01,0.052 0.011,0.103 0.016,0.1545 0.013,0.1317 0.02,0.2199 0.028,0.3545 0,0.056 0.016,0.2242 0.01,0.1684 -0.02,-0.2642 -0.01,-0.1613 -0.027,-0.3098 0,0.022 0.017,0.086 0.012,0.065 -0.041,-0.1623 -0.056,-0.3333 -0.1229,-0.4867 -0.2235,-0.5125 -0.3569,-0.7504 -0.081,-0.2332 -0.4707,-0.87 0.1106,0.204 0.1126,0.2077 0.05,0.096 -0.1048,-0.189 -0.1505,-0.2868 0,-0.01 0.1789,0.3135 0.041,0.071 -0.091,-0.1299 -0.1828,-0.2597 -0.2741,-0.3896 0.031,0.038 0.1263,0.1519 0.093,0.1155 -0.075,-0.082 -0.1532,-0.1608 -0.2172,-0.251 -0.049,-0.069 0.2383,0.2378 0.1714,0.1864 -0.074,-0.057 -0.1226,-0.1399 -0.1917,-0.202 -0.1295,-0.1163 -0.2686,-0.2214 -0.403,-0.3321 -0.4748,-0.3324 -1.0098,-0.5245 -1.5804,-0.5923 0.4997,-0.01 0.991,0.07 1.4785,0.1689 0.2801,0.037 0.5457,0.1714 0.8267,0.2016 0,0 -0.01,0 -0.01,-0.01 0.048,-0.01 0.1101,0.01 0.1588,0.01 0.2138,0.01 -0.063,-0.01 0.4084,0.027 0.3716,0.035 0.7415,0.087 1.1111,0.1378 0.3149,0.048 0.6276,0.1023 0.9456,0.1226 0.3961,0.019 0.7928,0.019 1.1892,0.02 0.2226,4e-4 0.4468,-7e-4 0.6689,-0.018 0.083,-0.01 0.1651,-0.029 0.2479,-0.041 0.1078,-0.016 0.2158,-0.031 0.3238,-0.047 0.7502,-0.1487 1.5099,-0.2363 2.2716,-0.2987 0.5143,-0.04 1.0302,-0.05 1.5459,-0.052 0.4045,-3e-4 0.809,0 1.2135,0 0.3865,6e-4 0.773,7e-4 1.1595,8e-4 0.2968,0.012 0.5841,0 0.8774,-0.025 0.406,-0.03 0.8129,-0.041 1.2199,-0.047 0.2628,0 0.5256,0 0.7884,0 0.2097,-10e-5 0.1356,0.014 0.2249,-0.01 0.4115,-0.031 0.8236,-0.049 1.236,-0.06 0.3603,-0.016 0.7243,-0.019 1.0829,-0.06 0.3871,-0.039 0.7755,-0.062 1.1629,-0.098 0.4367,-0.032 0.8718,-0.079 1.3085,-0.1108 0.7796,-0.058 1.5599,-0.036 2.3394,0.01 1.0726,0.065 2.1434,0.1535 3.2151,0.2325 0.7244,0.051 1.4502,0.079 2.1762,0.093 0.3127,0.01 0.6254,0.01 0.9381,0 0.3606,-0.011 0.7199,0.016 1.0787,0.049 0.2901,0.018 0.5805,0.024 0.8708,0.04 0.3106,0.026 0.6216,0.045 0.9332,0.055 0.2177,0.01 0.4356,0.01 0.6533,0.01 0.05,-0.013 0.4721,0.017 0.1137,4e-4 -0.013,-6e-4 0.026,0 0.04,0 0.046,0 0.093,-0.01 0.1397,-0.013 0.072,-0.01 0.1432,-0.011 0.2148,-0.017 0.2304,-0.051 0.481,-0.068 0.7129,-0.1342 0.3334,-0.1232 0.6713,-0.2401 1.0086,-0.354 0.2243,-0.074 0.589,-0.1974 1.0338,-0.2953 0.2195,-0.031 0.3851,-0.078 0.9009,-0.1297 0.4716,-0.052 0.9443,-0.018 1.412,0.05 -0.2063,-0.1121 0.6406,0.1357 0.7192,0.1579 0.044,0.012 -0.1752,-0.049 -0.1313,-0.037 0.3044,0.084 0.2107,0.057 0.3693,0.1043 0.1096,0.038 0.2192,0.076 0.3287,0.1146 0.021,0.01 0.083,0.034 0.063,0.024 -0.03,-0.016 -0.1851,-0.063 -0.1899,-0.064 -0.5572,-0.1207 -0.4135,-0.096 -0.8975,-0.1217 -0.2701,0.033 -0.5419,0.055 -0.8103,0.1 -0.098,0.016 -0.1944,0.045 -0.2861,0.084 -0.61,0.2542 -0.9222,0.4078 -1.4087,0.9045 -0.2886,0.2947 -0.7059,1.01 -0.4253,0.537 -0.034,0.059 -0.073,0.1161 -0.1019,0.1778 -0.1722,0.3642 -0.2171,0.4662 -0.3062,0.831 -0.018,0.073 -0.027,0.1487 -0.04,0.2232 0,0.018 0.01,0.056 -0.01,0.053 -0.018,0 4e-4,-0.036 5e-4,-0.055 0,0.019 0,0.074 -0.01,0.056 -0.01,-0.048 0,-0.097 -0.01,-0.1456 -0.029,-0.3785 -0.062,-0.7557 -0.083,-1.1351 -0.068,-1.0796 -0.022,-2.1596 0.022,-3.239 0.051,-1.4521 0.1896,-2.8983 0.3301,-4.3439 0.1058,-1.0834 0.282,-2.1582 0.3924,-3.241 0.06,-0.5924 0.065,-0.7329 0.1043,-1.326 0.1386,-1.6677 0.1811,-3.3408 0.2108,-5.0133 0.044,-1.3312 0.07,-2.6636 0.1613,-3.9927 0.064,-0.9327 0.087,-1.0676 0.1847,-1.9877 0.1273,-1.064 0.2356,-2.13 0.3457,-3.1958 -0.013,0.089 -0.03,0.1899 -0.014,0.2759 0.3358,1.7714 0.3753,2.3612 2.5749,3.4308 1.017,0.4945 1.733,0.1863 2.57117,-0.1008 -0.4625,0.2138 -0.94227,0.3877 -1.42297,0.5557 -0.695,0.2238 -1.4022,0.4102 -2.1225,0.5321 -0.5398,0.091 -0.7195,0.1013 -1.262,0.1576 -1.3329,0.126 -2.6726,0.022 -3.9966,-0.144 -0.4837,-0.068 -0.9675,-0.135 -1.4534,-0.1854 -0.2806,-0.029 -0.5643,-0.066 -0.8466,-0.052 -0.8746,0.037 -1.7493,0.066 -2.6245,0.083 -1.3682,0.031 -2.7185,-0.1929 -4.0695,-0.3709 -1.3721,-0.22 -2.7599,-0.283 -4.1465,-0.3267 -1.7196,-0.041 -3.4398,-0.04 -5.1597,-0.041 -1.5287,-0.012 -3.0564,0 -4.5828,0.084 -1.6579,0.1317 -3.3135,0.2907 -4.969,0.4502 -1.2264,0.099 -2.4503,0.2199 -3.6736,0.3516 -0.049,0.01 -0.099,0.011 -0.1476,0.023 -0.031,0.01 0.065,0 0.096,-0.01 0.163,-0.042 0.3326,-0.068 0.4851,-0.1394 0.2998,-0.1397 0.6352,-0.2496 0.8633,-0.4891 0.477,-0.5007 0.9184,-1.0586 1.2087,-1.6862 0.1898,-0.4104 0.1282,-0.8952 0.1923,-1.3427 -0.016,-0.1371 -0.032,-0.2742 -0.048,-0.4114 -0.01,-0.032 -0.027,-0.1283 -0.017,-0.097 0.2537,0.8247 0.3429,1.6939 0.4554,2.5458 0.2662,1.9128 0.3601,3.8445 0.6124,5.7587 0.049,0.3693 0.1093,0.737 0.164,1.1055 0.2454,1.6731 0.636,3.3174 1.0898,4.9445 0.2401,0.9208 0.4937,1.8381 0.7306,2.7598 0.1737,0.606 0.2744,1.2291 0.3518,1.8537 0.045,0.3532 0.088,0.7067 0.1559,1.0563 0.01,0.012 0.011,0.024 0.015,0.037 0.016,0.055 0.03,0.1098 0.046,0.1648 0.019,0.065 0.037,0.1307 0.057,0.1958 0.017,0.055 0.033,0.111 0.053,0.1654 0,0.01 0.015,0.023 0.014,0.016 -0.01,-0.036 -0.023,-0.071 -0.034,-0.1064 -0.2165,-0.4967 -0.5356,-0.766 -1.0079,-1.0171 -0.1026,-0.036 -0.2055,-0.09 -0.3118,-0.1176 -0.026,-0.01 -0.1003,0 -0.078,-0.016 0.031,-0.02 0.073,0 0.1096,0 0.044,0 0.088,-0.01 0.1317,-0.011 0.9349,-0.045 1.8684,-0.1105 2.8029,-0.1647 1.7073,-0.1034 3.417,-0.079 5.1248,-0.01 2.0836,0.1181 4.1541,0.3901 6.2275,0.6185 1.2839,0.1384 2.5775,0.2055 3.869,0.1838 0.7894,-0.013 1.0382,-0.039 1.822,-0.091 1.6162,-0.1397 3.2174,-0.3916 4.817,-0.6535 1.0576,-0.1998 2.1211,-0.3647 3.1922,-0.4711 0.5328,-0.072 1.0669,-0.1086 1.6042,-0.1156 0.2265,0 0.4524,0.021 0.6783,0.035 0.041,0 0.081,0 0.122,0.01 0.035,0 0.1412,0.01 0.1059,0.01 -0.07,-9e-4 -0.14,0 -0.21,-0.01 -0.1768,0.018 -0.3574,0.013 -0.5303,0.055 -0.2839,0.068 -0.5727,0.1384 -0.8329,0.2708 -0.7687,0.3911 -1.2603,0.8611 -1.6727,1.6368 -0.3575,0.6724 -0.3361,0.9832 -0.385,1.6319 -0.013,0.3853 0.094,0.7511 0.2102,1.1117 0,0.01 -0.01,-0.01 -0.011,-0.016 -0.042,-0.09 -0.082,-0.1802 -0.1222,-0.2704 -0.4717,-0.9834 -0.689,-2.0549 -0.8778,-3.1211 -0.1777,-1.2892 -0.2799,-2.5944 -0.2571,-3.8967 0.01,-0.293 0.023,-0.5857 0.035,-0.8785 0.1011,-1.3337 0.3177,-2.6566 0.5369,-3.9752 0.1823,-1.0137 0.4662,-2.0045 0.73,-2.9988 0.1828,-0.6879 0.3978,-1.3674 0.5352,-2.0665 0.058,-0.2049 -0.018,-0.3896 0,0.1104 0.04,0.9436 0.083,0.7623 0.4858,1.8129 0.9499,1.0962 0.6848,1.0323 2.0417,1.6245 0.9213,0.4022 0.2645,0.03 0.6659,0.1361 0.023,0.01 -0.047,6e-4 -0.07,7e-4 -0.06,2e-4 -0.1196,0 -0.1795,0 -1.1108,0.028 -2.2141,-0.1019 -3.3155,-0.2269 -1.8193,-0.2343 -3.6412,-0.4429 -5.4705,-0.5802 -1.3599,-0.08 -2.7224,-0.1367 -4.0848,-0.146 -0.6059,0 -1.3712,0.013 -1.9758,0.023 -1.3476,0.019 -2.695,0.07 -4.0428,0.075 -0.7184,0 -1.289,-0.011 -2.0038,-0.024 -1.5813,-0.026 -3.163,-0.094 -4.7447,-0.067 -1.1759,0.014 -2.3487,0.088 -3.5164,0.2235 -0.8061,0.083 -1.6114,0.1668 -2.4092,0.311 -0.4012,0.105 -0.2052,0.029 -0.1587,0.033 0.017,0 -0.032,0.01 -0.047,0.016 -0.01,0 0.011,0 0.017,0 0.041,-0.014 0.081,-0.03 0.122,-0.044 0.054,-0.024 0.1055,-0.053 0.1607,-0.073 0.029,-0.011 -0.054,0.03 -0.081,0.044 -0.076,0.039 -0.1514,0.077 -0.2276,0.1143 -0.052,0.025 0.1006,-0.059 0.1553,-0.079 0.042,-0.015 -0.1531,0.089 -0.116,0.065 0.092,-0.06 0.1879,-0.1149 0.2819,-0.1723 0.1615,-0.1348 0.3382,-0.2533 0.4846,-0.4045 0.7104,-0.7333 1.0193,-1.5914 1.0015,-2.6055 0.1036,0.8095 0.1719,1.6232 0.2346,2.4371 0.1099,1.5381 0.1182,3.0807 0.1827,4.6208 0.046,1.0894 0.058,1.1635 0.1329,2.2254 0.063,0.8237 0.121,1.6486 0.2244,2.4685 0.021,0.1675 0.047,0.5254 0.1319,0.7071 -0.1285,-0.583 -0.5315,-1.0702 -0.9887,-1.4344 -0.033,-0.054 -0.164,-0.078 -0.1899,-0.1235 -0.01,-0.012 0.031,0.02 0.039,0.01 0.01,-0.01 -0.02,-0.014 -0.031,-0.02 0.033,0.01 0.067,0.01 0.1,0.015 0.8807,0.096 1.7638,0.1523 2.6487,0.1909 1.9701,0.068 3.9409,-0.045 5.9097,-0.1104 2.701,-0.092 5.3992,-0.2413 8.0961,-0.4139 2.1119,-0.1355 4.215,-0.3777 6.3103,-0.6702 0.5956,-0.093 1.195,-0.1792 1.781,-0.3238 0.2217,-0.055 0.2303,-0.055 0.1219,-0.036 0.022,-0.01 0.089,-0.031 0.067,-0.024 -0.036,0.011 -0.07,0.028 -0.1059,0.036 -0.02,0 0.037,-0.016 0.055,-0.024 0.065,-0.027 0.1301,-0.055 0.1962,-0.079 0.3157,-0.1166 0.3007,-0.1042 0.6387,-0.1966 0.1965,-0.054 0.3967,-0.094 0.5976,-0.1271 0.057,-0.01 -0.1129,0.022 -0.1697,0.031 -0.016,0 0.031,-0.01 0.046,-0.012 -0.5036,0.1067 -1.1783,0.5126 -1.6391,1.0355 -0.1626,0.1846 -0.2817,0.4032 -0.4225,0.6048 -0.3816,1.043 -0.3624,0.7434 -0.4385,1.5919 0,0.054 0,0.1093 -6e-4,0.1638 0,0.028 0,-0.057 0,-0.085 -0.01,-0.1985 -0.01,-0.1777 -0.016,-0.3954 -0.056,-0.6281 -0.068,-1.2591 -0.08,-1.8893 -0.01,-0.5109 4e-4,-1.0244 -0.083,-1.5302 -0.036,-0.22 -0.062,-0.3067 -0.1148,-0.5226 -0.1287,-0.5358 -0.3037,-1.0591 -0.487,-1.5782 -0.024,-0.072 -0.049,-0.1443 -0.074,-0.2165 -0.01,-0.013 -0.021,-0.051 -0.016,-0.038 0.1829,0.4646 0.4387,0.8717 0.8095,1.2174 0.1933,0.1803 0.4229,0.3171 0.6344,0.4757 0.8519,0.3603 0.5882,0.3124 1.252,0.4379 0.037,0.01 0.078,0 0.1121,0.014 0.024,0.011 -0.054,6e-4 -0.081,7e-4 -0.074,10e-5 -0.1473,0 -0.2209,0 -0.1096,2e-4 -0.2192,5e-4 -0.3288,8e-4 -1.2883,0 -2.5699,0.1388 -3.8499,0.2694 -2.6136,0.2674 -5.2413,0.3343 -7.8663,0.384 -2.4065,0.035 -4.8105,-0.081 -7.214,-0.1798 -1.1568,-0.05 -2.3143,-0.06 -3.4696,-0.138 -0.5404,-0.038 -1.081,-0.076 -1.6224,-0.096 -0.2249,-0.01 -0.4498,-0.01 -0.6748,-0.01 0.081,0 -0.2874,0 -0.2156,3e-4 0.097,-0.01 0.1962,0 0.2929,-0.011 0.6075,-0.088 1.0328,-0.1888 1.5765,-0.5528 0.3061,-0.2049 0.5481,-0.4922 0.8222,-0.7384 0.1584,-0.2539 0.3589,-0.4861 0.4753,-0.7618 0.2252,-0.5333 0.3453,-1.0339 0.3243,-1.5952 -0.022,-0.5935 -0.064,-0.3656 -0.133,-0.8221 0.1475,0.4639 0.2975,0.9272 0.4364,1.3939 0.1022,0.3386 0.1988,0.7364 0.2977,1.0352 -0.3638,-1.0737 -1.1712,-1.8179 -2.2375,-2.1728 0.3342,0.072 0.6774,0.083 1.0178,0.1008 1.3126,0.058 2.6259,0.037 3.9387,0 1.9439,-0.086 3.8844,-0.2425 5.8231,-0.4058 1.8055,-0.1649 3.6168,-0.2435 5.4287,-0.2869 1.1286,-0.016 2.2567,-0.074 3.3836,-0.1377 0.4869,-0.023 0.9721,-0.046 1.4554,-0.1098 0.3684,-0.049 0.2233,-0.017 0.4354,-0.07 0.1369,-0.025 0.3238,-0.074 0.3991,-0.1 5.0999,-1.5932 7.353,5.6191 2.2531,7.2123 l 0,0 c -0.4088,0.1253 -0.8224,0.2317 -1.2428,0.3108 -0.9523,0.1696 -1.913,0.271 -2.8803,0.3004 -1.207,0.067 -2.4151,0.1294 -3.6239,0.1472 -1.6606,0.039 -3.3206,0.1105 -4.9752,0.2625 -2.0855,0.1751 -4.1729,0.3437 -6.2642,0.4299 -1.5175,0.038 -3.0359,0.059 -4.553,-0.013 -0.8226,-0.048 -1.6468,-0.1165 -2.4483,-0.3197 -0.5287,-0.1509 -0.7125,-0.1792 -1.2722,-0.5072 -0.8743,-0.5122 -1.4893,-1.3511 -1.819,-2.2958 -0.1364,-0.4189 -0.2481,-0.8451 -0.3698,-1.2684 -0.086,-0.3127 -0.2056,-0.6154 -0.2848,-0.9301 -0.1627,-0.4616 -0.2837,-0.912 -0.3129,-1.4064 -0.013,-0.2153 -0.024,-0.4346 0.014,-0.6469 0.2199,-1.2301 0.2518,-1.0982 0.8415,-2.0778 0.2984,-0.2766 0.5607,-0.5983 0.8954,-0.8296 0.7443,-0.5144 1.6329,-0.7104 2.5199,-0.6947 0.3198,0 0.6396,8e-4 0.9592,0.012 0.6183,0.024 1.2359,0.063 1.853,0.1079 1.0877,0.075 2.1783,0.073 3.2673,0.1269 2.2523,0.093 4.5049,0.2042 6.76,0.1747 2.4169,-0.045 4.8365,-0.1019 7.2431,-0.3464 1.5285,-0.1554 3.0593,-0.3067 4.5974,-0.3083 0.6326,0 1.4323,-0.04 2.0314,0.1448 0.3416,0.1055 0.6648,0.2632 0.9972,0.3948 0.2529,0.1822 0.5268,0.3382 0.7586,0.5465 0.6163,0.5537 1.0202,1.2858 1.2686,2.0653 0.2806,0.796 0.5393,1.6011 0.7309,2.4238 0.1234,0.5647 0.1674,0.7148 0.2477,1.2934 0.1052,0.7576 0.1339,1.5221 0.135,2.2862 0.011,0.5888 0.029,1.177 0.077,1.7641 0.01,0.2394 0.039,0.4874 0.025,0.7257 -0.055,0.959 -0.079,0.7366 -0.4649,1.8503 -0.1611,0.2392 -0.2965,0.4979 -0.4834,0.7177 -0.5992,0.7047 -1.4022,1.1589 -2.2859,1.3904 -0.2233,0.055 -0.085,0.022 -0.45,0.099 -0.033,0.01 0.067,-0.013 0.1,-0.023 0.01,0 -0.011,0 -0.016,0 -0.05,0.013 -0.1,0.026 -0.15,0.039 0.065,-0.019 0.1314,-0.037 0.1961,-0.058 0,0 0.4008,-0.1559 0.042,-0.011 -0.3366,0.1357 -0.2613,0.1063 -0.5472,0.204 -1.0387,0.314 -2.109,0.4989 -3.1822,0.6528 -2.281,0.3163 -4.57,0.5808 -6.869,0.7269 -2.774,0.1772 -5.5495,0.3307 -8.3278,0.4252 -2.1642,0.072 -4.3307,0.1919 -6.4964,0.1071 -1.3011,-0.059 -2.6069,-0.1318 -3.8926,-0.3505 -0.1681,-0.038 -0.3375,-0.07 -0.5042,-0.1137 -0.7371,-0.1925 -1.4489,-0.4839 -2.0839,-0.9081 -0.351,-0.2527 -0.4873,-0.3321 -0.8156,-0.6657 -0.6112,-0.6211 -1.0181,-1.3958 -1.2542,-2.2291 -0.045,-0.1809 -0.095,-0.3605 -0.1334,-0.5427 -0.2826,-1.3227 -0.3299,-2.684 -0.4522,-4.0266 -0.083,-1.204 -0.096,-1.2697 -0.1466,-2.4907 -0.06,-1.4356 -0.068,-2.8733 -0.1655,-4.3073 -0.04,-0.5373 -0.076,-1.0773 -0.139,-1.6127 -0.016,-0.133 -0.039,-0.2651 -0.055,-0.3981 -0.023,-0.1882 -0.028,-0.2586 -0.04,-0.42 -0.025,-0.5759 -0.048,-0.6118 0.091,-1.3409 0.1328,-0.6978 0.5603,-1.406 1.0394,-1.9158 0.1727,-0.1837 0.3817,-0.3295 0.5725,-0.4942 0.5001,-0.3188 0.6546,-0.4027 1.1387,-0.6374 0.5702,-0.2349 1.1563,-0.4281 1.7689,-0.5189 0.9544,-0.1698 1.9159,-0.2847 2.8804,-0.3802 1.4162,-0.1606 2.8379,-0.2558 4.2636,-0.2718 1.6658,-0.022 3.3312,0.032 4.9966,0.067 0.5288,0.01 1.2233,0.026 1.753,0.024 1.3429,-0.01 2.6853,-0.056 4.0279,-0.075 0.7953,-0.013 1.4472,-0.028 2.2457,-0.023 1.5054,0.011 3.0108,0.076 4.5133,0.1662 1.9228,0.1471 3.8389,0.3579 5.7511,0.6068 0.8224,0.093 1.6442,0.2073 2.4742,0.1787 0.5256,0 1.2668,-0.01 1.7398,0.1806 1.4792,0.5832 1.2545,0.5933 2.2782,1.7391 0.16101,0.4 0.36632,0.7849 0.48297,1.1999 0.20521,0.7302 0.0762,1.5242 -0.0536,2.2547 -0.17404,0.8443 -0.40273,1.6742 -0.63733,2.5033 -0.2036,0.766 -0.4241,1.5287 -0.5805,2.3062 -0.1715,1.0158 -0.3329,2.0357 -0.4406,3.0603 -0.01,0.1784 -0.023,0.3567 -0.028,0.5352 -0.024,0.8781 0.048,1.7584 0.1483,2.6298 0.072,0.445 0.128,0.9046 0.328,1.3137 0.056,0.1298 0.1219,0.2556 0.1767,0.3862 0.2347,0.5587 0.3998,1.1442 0.4036,1.7557 -0.044,0.7315 -0.013,1.0876 -0.3981,1.8376 -0.6124,1.1917 -1.5052,1.8258 -2.773,2.1478 -0.23,0.058 -0.4708,0.06 -0.7062,0.09 -0.3458,9e-4 -0.6921,-10e-4 -1.0364,-0.037 0.04,0 0.081,0 0.1207,-0.01 0.03,0 -0.061,0 -0.092,0.01 -0.038,0 -0.077,0.01 -0.1152,0.01 -0.2342,0.021 -0.4675,0.052 -0.7015,0.075 -0.9085,0.086 -1.8074,0.2433 -2.7046,0.4076 -1.8432,0.3017 -3.6897,0.5858 -5.5528,0.7371 -1.0119,0.063 -1.3041,0.094 -2.3256,0.1071 -1.5617,0.02 -3.1251,-0.062 -4.6776,-0.2292 -1.9038,-0.2097 -3.8048,-0.4593 -5.717,-0.5798 -1.4571,-0.063 -2.9157,-0.085 -4.3725,0 -0.9422,0.054 -1.8835,0.1201 -2.8261,0.166 -0.3366,0.016 -0.562,0.033 -0.8954,0.023 -0.7363,-0.023 -1.4634,-0.134 -2.1557,-0.3953 -0.4985,-0.2221 -0.7125,-0.2887 -1.1613,-0.6014 -0.7665,-0.534 -1.3722,-1.2315 -1.8153,-2.0525 -0.084,-0.1837 -0.1757,-0.3644 -0.2537,-0.5509 -0.2536,-0.607 -0.4011,-1.2552 -0.5539,-1.8925 -0.094,-0.5133 -0.1693,-1.0294 -0.2306,-1.5476 -0.03,-0.2942 -0.081,-0.5845 -0.1678,-0.8677 -0.2226,-0.8719 -0.4656,-1.7386 -0.6905,-2.6099 -0.5368002,-1.9327 -0.9953002,-3.8866 -1.2864002,-5.8731 -0.065,-0.4444 -0.1359,-0.888 -0.1939,-1.3334 -0.2444,-1.8769 -0.3448,-3.769 -0.5983,-5.6449 -0.047,-0.3584 -0.1012,-0.7157 -0.1468,-1.0742 0,-0.03 0,-0.062 0,-0.092 -0.038,-0.2175 -0.1301,-0.4227 -0.1751,-0.6389 -0.048,-0.2323 -0.075,-0.4686 -0.112,-0.7029 0.059,-0.5193 -0.026,-1.0766 0.1777,-1.558 0.2899,-0.6853 0.7549,-1.2964 1.2606,-1.8423 0.264,-0.2848 0.6504002,-0.4285 1.0000002,-0.5976 0.4951,-0.2394 1.0574,-0.3063 1.5937,-0.3828 1.2516,-0.1348 2.5039,-0.2592 3.7588,-0.3603 1.7559,-0.1689 3.5119,-0.3392 5.2709,-0.4732 1.6684,-0.091 3.3378,-0.1116 5.0085,-0.095 1.7995,9e-4 3.5993,0 5.3983,0.045 1.6369,0.053 3.2749,0.135 4.8954,0.3881 0.9733,0.1293 1.9447,0.3072 2.9299,0.3071 0.946,-0.018 1.8911,-0.059 2.837,-0.084 0.2166,0 0.4335,0 0.65,0.014 0.8584,0.039 1.7101,0.1792 2.5614,0.2866 0.7521,0.1039 1.517,0.1727 2.2759,0.1176 0.5627,-0.051 1.1193,-0.1296 1.6574,-0.3106 0.2749,-0.093 0.5495,-0.1901 0.8122,-0.3141 0.9164,-0.3366 1.7109,-0.7137 2.82211,-0.1949 0.94261,0.4401 1.70139,1.2476 2.32931,2.077 0.42372,0.5597 0.35245,1.4998 0.31523,2.187 -0.11123,1.0761 -0.22043,2.1524 -0.34897,3.2267 -0.0812,0.7438 -0.10054,0.8574 -0.15421,1.62 -0.0864,1.2276 -0.10657,2.4585 -0.1497,3.6881 -0.0324,1.7997 -0.0799,3.5999 -0.22725,5.3946 -0.0531,0.7619 -0.0565,0.9029 -0.13478,1.6609 -0.1077,1.0431 -0.2716,2.0791 -0.37982,3.1221 -0.12734,1.3054 -0.25614,2.6111 -0.30101,3.9226 -0.0346,0.8398 -0.0813,1.6795 -0.0268,2.5198 0.0331,0.6347 0.11364,1.2669 0.10313,1.9034 -0.0357,0.8637 -0.17071,1.6658 -0.63572,2.419 0.2025,-0.3566 -0.22193,0.3952 -0.53632,0.7261 -0.52564,0.5533 -0.89784,0.7492 -1.57054,1.0361 -0.1255,0.054 -0.257,0.095 -0.391,0.1207 -0.3042,0.058 -0.6133,0.085 -0.92,0.1273 -0.1657,-0.01 -0.3324,0 -0.4971,-0.017 -0.3958,-0.045 -0.6083,-0.091 -0.9473,-0.197 -0.075,-0.023 -0.1487,-0.05 -0.2228,-0.076 -0.032,-0.011 -0.1271,-0.044 -0.095,-0.035 0.058,0.015 0.1141,0.037 0.1712,0.055 -0.031,-0.01 -0.1259,-0.034 -0.094,-0.028 0.053,0.01 0.211,0.054 0.1583,0.04 -0.09,-0.024 -0.1799,-0.047 -0.27,-0.07 -0.025,-0.01 0.05,0.015 0.076,0.02 0.1351,0.026 0.2714,0.045 0.406,0.073 0.05,0.01 -0.1013,-0.013 -0.152,-0.02 -0.032,0 -0.064,-0.01 -0.097,-0.014 0,-4e-4 0.01,10e-5 0.01,3e-4 0.054,0 0.1088,0.012 0.1634,0.013 0.1135,0 0.227,0 0.3405,0 0.016,0 -0.047,0 -0.048,9e-4 0.026,0 0.1019,-0.021 0.076,-0.016 -0.1228,0.021 -0.632,0.1111 -0.2284,0.04 0.1745,-0.042 0.1513,-0.033 0.3096,-0.084 0.013,0 0.053,-0.02 0.039,-0.015 -0.1386,0.049 -0.2771,0.1104 -0.42,0.1415 -0.569,0.1866 -1.1265,0.4111 -1.7101,0.5517 -0.6047,0.1331 -1.2152,0.2426 -1.8316,0.3051 -0.3646,0.025 -0.7285,0.071 -1.0948,0.057 -0.2978,-4e-4 -0.5956,0 -0.8932,-0.011 -0.3929,-0.013 -0.7855,-0.034 -1.1773,-0.067 -0.072,-0.031 0,0 -0.213,-0.01 -0.2863,-0.01 -0.5724,-0.021 -0.8577,-0.047 -0.033,0 -0.4643,-0.033 -0.021,-0.018 0.038,0 -0.075,10e-5 -0.1128,2e-4 -0.094,2e-4 -0.1404,4e-4 -0.2349,6e-4 -0.3686,9e-4 -0.7371,8e-4 -1.1057,-0.01 -0.862,-0.017 -1.7237,-0.051 -2.5838,-0.1126 -1.023,-0.076 -2.0452,-0.1602 -3.0692,-0.2231 -0.4683,-0.026 -0.9295,-0.049 -1.3986,-0.013 -0.3813,0.025 -0.7608,0.072 -1.1421,0.097 -0.4007,0.037 -0.8022,0.062 -1.2027,0.1017 -0.5136,0.041 -1.0287,0.073 -1.5439,0.086 -0.3621,0.01 -0.7234,0.03 -1.0848,0.055 -0.4173,0.015 -0.8344,0.014 -1.2519,0.016 -0.2685,0 -0.537,0.01 -0.8048,0.03 -0.4666,0.032 -0.9334,0.053 -1.4012,0.043 -0.3902,-10e-5 -0.7804,-2e-4 -1.1706,-8e-4 -0.3902,-6e-4 -0.7805,0 -1.1708,0 -0.3245,0 -0.6491,0 -0.9729,0.028 -0.6019,0.046 -1.1988,0.129 -1.7916,0.2448 -0.779,0.1128 -1.5609,0.2077 -2.3501,0.1841 -0.5745,0 -1.1495,0 -1.723,-0.041 -0.4857,-0.038 -0.9681,-0.097 -1.4486,-0.177 -0.2451,-0.037 -0.4759,-0.065 -0.7148,-0.092 0.1365,-10e-4 0.023,7e-4 -0.1753,-0.01 -0.393,-0.02 -0.7853,-0.06 -1.1726,-0.1304 -0.3496,-0.072 -0.6955,-0.1563 -1.0403,-0.2467 0.064,0.01 0.1373,0.023 0.2031,0.023 0.02,2e-4 -0.081,0 -0.061,-0.01 0.042,0 0.1683,0 0.1262,8e-4 -0.3878002,0 0.098,0 -0.3227002,0 -0.9207,-0.036 -1.6815,-0.224 -2.4683,-0.7405 -0.7764,-0.6199 -0.7697,-0.6282 -1.3251,-1.3908 -0.038,-0.063 -0.075,-0.1264 -0.1126,-0.1897 0.012,0.02 0.046,0.08 0.036,0.059 -0.068,-0.1275 -0.1384,-0.2537 -0.2071,-0.3808 -0.049,-0.091 0.098,0.1823 0.1486,0.2726 0.01,0.018 0.044,0.071 0.034,0.053 -0.077,-0.1365 -0.1562,-0.2719 -0.2343,-0.4079 0.034,0.062 0.07,0.1234 0.1032,0.1865 0.018,0.035 -0.042,-0.066 -0.059,-0.1015 -0.2331,-0.4796 -0.4426,-0.9178 -0.5185,-1.4517 -0.045,-0.2736 -0.075,-0.5485 -0.093,-0.8249 -0.033,-0.286 -0.064,-0.5726 -0.063,-0.8609 0,-0.1 -0.012,-0.1988 -0.032,-0.2972 -0.034,-0.2289 -0.057,-0.4153 -0.1321,-0.7214 -0.1028,-0.5876 -0.1978,-1.177 -0.2342,-1.7732 -0.065,-0.9095 -0.06,-1.8089 -0.05,-2.72 0.01,-1.1318 0.017,-2.2638 0.061,-3.3949 0.039,-0.9698 0.1055,-1.9395 0.075,-2.9105 -0.01,-0.627 -0.034,-1.2531 -0.062,-1.8795 0,-0.488 10e-5,-0.976 0,-1.464 -10e-5,-0.4975 -10e-5,-0.9951 -9e-4,-1.4927 -0.001,-0.5845 0,-1.1691 0,-1.7536 0,-0.9248 0,-1.8502 0.054,-2.7739 0.072,-1.1453 0.2001,-2.2851 0.3745,-3.4195 0.1111,-0.9022 0.1724,-1.8108 0.1754,-2.7199 0,-0.2967 -0.01,-0.5982 0.029,-0.8935 0.091,-0.7964 0.3317,-1.4573 0.8049,-2.1184 0.2888,-0.2812 0.5397,-0.6076 0.8665,-0.8437 0.7597,-0.5487 1.6757,-0.7716 2.5958,-0.749 0.3524002,0 0.7057002,0.01 1.0554002,0.056 0.065,0.01 0.1298,0.019 0.1945,0.029 0.05,0.01 0.1005,0.018 0.1508,0.027 0.013,0 0.052,0.01 0.039,0.01 -0.4127,-0.053 0.1906,0 -0.5715,-0.045 -0.027,0 0.054,0 0.082,0 0.1837,10e-5 0.3673,10e-5 0.551,3e-4 0.1947,3e-4 0.3894,9e-4 0.5841,0 0.2513,0 0.5026,0 0.7538,0 0.5401,-0.016 1.0803,-0.046 1.6163,-0.1173 0.9872,-0.1364 1.968,-0.31696 2.9596,-0.42166 1.0884,-0.099 2.1782,-0.169 3.2718,-0.1392 0.9392,2e-4 1.8783,2e-4 2.8174,0.01 0.9906,0.01 1.9812,0.027 2.9712,0.064 1.2189,0.037 2.439,0.045 3.6565,0.1236 1.7013,0.098 3.4022,0.20226 5.1052,0.27066 1.9405,0.064 3.8815,0.1199 5.8208,0.2118 1.6069,0.1065 3.2105,0.2539 4.8163,0.3758 1.0646,0.092 2.1303,0.1745 3.1885,0.3276 0.6753,0.056 1.3542,0.054 2.0311,0.077 0.6106,0.027 1.2214,0.065 1.82567,0.1611 0.33372,0.039 0.6623,0.073 0.99815,0.093 0.11993,0.018 0.24075,0.032 0.35979,0.055 0.44829,0.088 0.87025,0.2379 1.28102,0.4264 0.50413,0.265 0.68378,0.3674 1.22497,0.7598 0.21253,0.1782 0.3322,0.2687 0.52085,0.4603 0.44399,0.4509 0.81847,0.9621 1.09082,1.5344 0.13887,0.2992 0.27291,0.6009 0.39785,0.9062 -0.0517,-0.1165 -0.006,-0.014 0.0927,0.2355 0.0178,0.045 -0.037,-0.089 -0.0543,-0.1347 -0.01,-0.025 0.0218,0.049 0.0311,0.074 0.0527,0.1413 0.10249,0.2836 0.15502,0.4249 0.0134,0.036 -0.0252,-0.073 -0.0377,-0.1094 0.15444,0.4663 0.29986,0.9356 0.34464,1.428 0.0569,0.445 0.0983,0.8923 0.11653,1.3407 0.0172,0.365 0.0756,0.7266 0.10029,1.0912 0.048,0.7251 0.11956,1.4486 0.14692,2.175 0.0219,0.5074 0.0361,0.7309 0.0377,1.2576 0.003,0.9883 -0.0474,1.9767 -0.0709,2.9645 -0.0729,1.8241 -0.18168,3.6465 -0.24931,5.4709 -0.0659,1.5155 -0.1166,3.033 -0.12552,4.5499 3.6e-4,1.2287 -0.002,2.4575 0.0197,3.686 0.0248,1.0542 0.0671,2.1081 0.16404,3.1586 0.0654,0.8528 0.12815,1.708 0.12321,2.5638 9.6e-4,0.5175 0.01,1.0376 -0.0972,1.5474 -0.1415,0.515 -0.18974,0.8122 -0.49804,1.2965 -0.62024,0.9744 -1.28937,1.4516 -2.37167,1.8089 -0.16787,0.055 -0.34571,0.074 -0.51857,0.1111 -0.409,0.056 -0.82067,0.1024 -1.2342,0.07 -0.27289,-0.014 -0.54577,-0.032 -0.81707,-0.066 0.0698,0 0.13954,0 0.20927,0 0.0325,0 -0.065,2e-4 -0.0975,2e-4 -0.13128,2e-4 -0.26256,6e-4 -0.39383,-10e-4 -0.33021,-0.01 -0.66032,-0.021 -0.98879,-0.057 -0.4415,-0.049 -0.881,-0.1145 -1.3203,-0.18 -0.4436,-0.079 -0.8871,-0.159 -1.3285,-0.2496 -0.267,-0.054 -0.542,-0.097 -0.8056,-0.1648 -0.022,-0.01 0.044,0.01 0.066,0.011 -0.2514,-0.046 -0.4406,-0.075 -0.7606,-0.1273 -0.077,-0.03 0,0 -0.2201,-0.035 -0.041,-0.01 -0.082,-0.01 -0.1218,-0.019 -0.021,-0.01 0.084,0.01 0.063,0 -0.047,-0.01 -0.094,-0.01 -0.1412,-0.015 -0.012,0 -0.025,0 -0.037,-0.01 0.042,8e-4 0.1674,0 0.1255,0 -0.3033,-0.01 -0.6068,-0.014 -0.9095,-0.037 -0.1934,-0.014 -0.1845,-0.013 -0.3659,-0.029 -0.027,0 -0.1079,-0.01 -0.081,-0.01 0.4004,-0.027 -0.023,0.024 -0.09,7e-4 -0.3243,-0.01 -0.6487,-0.02 -0.9706,-0.061 -0.4475,-0.057 -0.1838,-0.038 -0.6206,-0.069 -0.048,0 -0.096,-0.01 -0.1434,-0.013 -0.019,0 -0.077,0 -0.058,-0.01 0.03,-0.01 0.1243,-6e-4 0.093,0 -0.1451,0 -0.2905,0 -0.4356,0 -0.3559,-10e-5 -0.7118,-3e-4 -1.0676,-8e-4 -0.3473,-5e-4 -0.6946,0 -1.0419,-6e-4 -0.1765,0 -0.3532,0 -0.5294,0.013 -0.2046,0.018 -0.4026,0.076 -0.6022,0.121 -0.5775,0.1622 -1.1628,0.2974 -1.755,0.3946 -0.7029,0.106 -1.4092,0.1775 -2.1159,0.2528 -0.7091,0.067 -1.4205,0.1051 -2.1277,0.192 -0.9031,0.1204 -1.8073,0.2311 -2.7134,0.3268 -0.5037,0.038 -1.0075,0.074 -1.5114,0.1083 -0.43,0.033 -0.8606,0.049 -1.2911,0.075 -0.4555,0.027 -0.9111,0.034 -1.3674,0.028 -0.4076,0 -0.8152,10e-5 -1.2228,4e-4 -0.4311,3e-4 -0.8622,10e-4 -1.2933,9e-4 -0.5219,-10e-4 -1.044,0 -1.5655,-0.026 -0.5015,-0.029 -1.0031,-0.07 -1.4978,-0.1605 -0.3086,-0.037 -0.616,-0.069 -0.9276,-0.068 -0.4186,-0.025 -0.8356,-0.066 -1.2541,-0.091 -0.4459,-0.03 -0.8904,-0.076 -1.3366,-0.1031 -0.3816,-0.03 -0.7644,-0.038 -1.1463,-0.067 -0.3647,-0.024 -0.7303,-0.017 -1.0958,-0.03 -0.3813,-0.014 -0.7627,-0.031 -1.1429,-0.062 -0.4483,-0.01 -0.8969,-0.013 -1.3435,-0.055 -0.3879,-0.037 -0.7764,-0.061 -1.1632,-0.1169 -0.5433,-0.098 -1.0798,-0.2307 -1.5912,-0.4429 -0.5708,-0.2502 -1.0759,-0.5162 -1.527,-0.9776 -0.5187002,-0.5306 -0.8504002,-1.1052 -1.0410002,-1.8223 -0.084,-0.3144 -0.082,-0.6455 -0.123,-0.9682 0,-0.091 0,-0.1827 0.01,-0.2738 0.01,-0.1077 0.025,-0.4303 0.03,-0.3225 0.01,0.1465 -0.015,0.2929 -0.025,0.4391 0,0.027 0,-0.053 0,-0.08 0,-0.091 0,-0.082 2e-4,-0.1759 0,-0.2581 0.01,-0.5163 0.02,-0.7741 0.011,-0.1941 0.024,-0.388 0.043,-0.5816 0.01,-0.064 0.014,-0.1283 0.021,-0.1923 5e-4,0 0,-0.016 0,-0.012 0,0.097 -0.01,0.1933 -0.01,0.2899 2e-4,-0.1948 5e-4,-0.3895 8e-4,-0.5842 10e-5,-0.2158 7e-4,-0.4316 0,-0.6474 0,-0.1773 -0.015,-0.3544 -0.039,-0.5303 -0.037,-0.2988 -0.066,-0.5982 -0.1245,-0.8938 -0.066,-0.4675 -0.139,-0.9345 -0.1363,-1.4085 10e-5,-0.396 3e-4,-0.7921 4e-4,-1.1881 -1e-4,-0.2213 7e-4,-0.4425 0,-0.6638 0.01,0.041 0.011,0.083 0.018,0.1237 0,0.023 0.01,0.045 0.012,0.068 0,0.011 0.01,0.042 0.01,0.032 -0.01,-0.026 -0.011,-0.052 -0.016,-0.078 -0.067,-0.3869 -0.1049,-0.7779 -0.094,-1.1708 10e-5,-0.1583 2e-4,-0.3167 0,-0.475 0,-0.2492 -0.013,-0.4983 -0.031,-0.747 -0.03,-0.4471 -0.053,-0.8943 -0.043,-1.3426 0,-0.358 -1e-4,-0.716 -3e-4,-1.0739 -3e-4,-0.2495 -9e-4,-0.499 -10e-4,-0.7485 10e-4,-0.5801 0.01,-1.1601 0.018,-1.7401 0.024,-1.0727 0.061,-2.1453 0.1369,-3.2158 0.049,-0.7829 0.053,-1.5688 0.1389,-2.3496 0.044,-0.6204 0.1054,-1.2391 0.1557,-1.859 3e-4,-0.7636 0.01,-1.5274 0.053,-2.29 0.095,-1.651 0.2374,-3.3003 0.4996,-4.9342 0.2011,-1.2571 0.4268002,-2.514 0.8097002,-3.7307 0.072,-0.2094 0.1318,-0.4283 0.2248,-0.6292 0.089,-0.1922 0.1929,-0.3772 0.2897,-0.5657 7e-4,0 0,0 0,0 0.3089,-0.3522 0.6177,-0.7043 0.9266,-1.0565 0.5403,-0.2515 1.0415,-0.61546 1.621,-0.75446 1.3131,-0.315 2.6876,0.2114 3.6196,1.11746 -0.1759,-0.142 -0.3465,-0.2909 -0.5277,-0.4261 -0.07,-0.052 -0.1432,-0.1023 -0.2241,-0.1346 -0.7737,-0.3093 -1.256,-0.52066 -2.0613,-0.41936 0.3104,-0.021 0.6177,-0.045 0.9286,-0.036 0.2642,-3e-4 0.5285,-3e-4 0.7927,0 0.371,0.01 0.7417,0.031 1.1102,0.078 0.4046,0.047 0.8108,0.053 1.218,0.034 0.7775,-0.016 1.5567,-0.032 2.3313,0.054 0.3521,0.036 0.7058,0.064 1.0603,0.057 0.5057,0 1.0113,0 1.517,0 0.3899,0 0.7797,0 1.1696,-10e-5 0.6131,0 1.2262,-1e-4 1.8394,-3e-4 0.8015,-2e-4 1.603,-5e-4 2.4045,5e-4 0.8646,0 1.7292,0 2.5936,0.022 0.4846,0.014 0.9687,0.043 1.453,0.054 0.3378,6e-4 0.6756,0 1.0134,0 0.3494,0 0.6989,9e-4 1.048,-0.017 0.8404,-0.047 1.6791,-0.1286 2.5071,-0.28392 0.1299,-0.024 1.0048,-0.1871 1.1616,-0.2192 0.8933,-0.1832 1.7817,-0.3907 2.6786,-0.55673 0.2569,-0.0442 0.513,-0.0923 0.7705,-0.13248 1.0926,-0.17069 2.1952,-0.267 3.2933,-0.39348 0.8594,-0.0814 1.7179,-0.17106 2.5789,-0.23421 0.6789,-0.0555 1.3577,-0.0669 2.0387,-0.0562 0.5761,0 1.1522,0 1.7284,0 0.407,0 0.8141,0 1.22112,0 5.34295,0 5.34295,7.55602 0,7.55602 z"
       inkscape:connector-curvature="0"
       id="path5428"
       style="fill:none" />
    <rect
       width="44.25"
       height="56.25"
       x="1007.1921"
       y="-55.751099"
       transform="matrix(0,1,-1,0,0,0)"
       id="rect5463"
       style="fill:none" />
    <path
       d="m 64.226983,995.40665 c -0.33162,-0.1006 -0.67812,-0.1497 -1.0228,-0.1793 -0.3212,-0.019 -0.6435,-0.029 -0.96519,-0.019 -0.25532,0 -0.50742,0.045 -0.76142,0.065 -0.25696,0.022 -0.51468,0.014 -0.7721,0.02 -0.26328,0 -0.52648,7e-4 -0.78975,0 -0.28792,0 -0.57417,0.034 -0.862,0.042 -0.4178,-0.01 -0.83446,0.01 -1.25161,0.026 -0.66246,0.057 -1.32441,0.098 -1.98902,0.1177 -0.9046,0.03 -1.80815,0.08 -2.71258,0.1159 -0.93867,0.015 -1.87557,0.078 -2.81307,0.1236 -0.7638,0.041 -1.5288,0.042 -2.2931,0.067 -0.5953,0.014 -1.1905,0.031 -1.786,0.042 -0.6936,0.038 -1.388,0 -2.0819,-0.01 -0.8764,-0.022 -1.7526,-0.01 -2.6289,0.01 -0.7497,0.02 -1.4998,0.026 -2.2497,0.03 -0.5869,6e-4 -1.1728,0.038 -1.759,0.06 -0.4569,0.017 -0.914,0.01 -1.371,0 -0.5469,-0.01 -1.0935,-0.011 -1.6396,-0.045 -0.7825,-0.067 -1.5668,-0.093 -2.3514,-0.1202 -0.8164,0.01 -1.6314,-0.026 -2.4465,-0.069 -0.7738,-0.022 -1.5468,-0.062 -2.3203,-0.094 -0.9034,-0.029 -1.8071,-0.019 -2.7105,0 -0.7324,0.011 -1.4642,0.038 -2.1966,0.048 -0.5181,0.01 -1.0355,0.039 -1.5529,0.066 -0.3307,0.018 -0.6619,0.025 -0.993,0.028 -0.3221,-0.01 -0.6444,0 -0.9665,0 -0.3691,0.01 -0.7374,-0.01 -1.1042,-0.048 -0.089,-0.015 -0.1794,-0.027 -0.2684,-0.045 -0.3839,-0.078 -0.7626,-0.1822 -1.1444,-0.2689 -0.4294,-0.098 -0.5896,-0.1252 -1.0322,-0.2118 -1.0436,-0.176 -2.081,-0.3118 -3.1397,-0.3383 -0.4391,0 -0.8748,0.051 -1.3104,0.098 -0.1293,0 -0.2531,0.037 -0.379,0.063 -0.1922,0.01 -0.3783,0.067 -0.5674001,0.1004 -0.2262,0.042 -0.4495,0.097 -0.6785,0.1225 -0.2501,0 -0.4985,0.026 -0.7456,0.065 -0.228,0.034 -0.4495,0.097 -0.6744,0.1467 -0.1709,0.037 -0.3453,0.05 -0.5196,0.056 -0.1518,0 -0.3037,0 -0.4555,0 -0.1507,-5e-4 -0.3015,-7e-4 -0.4522,-9e-4 -0.163,3e-4 -0.3258,0 -0.4884,0.01 -0.18,-0.024 -0.3575,-0.064 -0.5385,-0.089 -0.187,0 -0.3719,0.031 -0.5573,0.051 -0.094,0.013 -0.1406,0.068 -0.2236,0.1152 -0.086,0.063 -0.183,0.1137 -0.2773,0.1639 -0.1015,0.04 -0.1692,0.1152 -0.2451,0.1884 -0.041,0.085 0.011,-0.012 -0.079,0.102 -0.011,0.014 -0.014,0.032 -0.025,0.045 -0.042,0.051 -0.09,0.066 -0.085,0.1348 -0.025,0.029 -0.061,0.057 -0.066,0.099 0,0.011 0.01,0.022 0.01,0.032 -0.033,0.067 -0.072,0.067 -0.066,0.1418 0.025,0.032 0,0.1021 0.027,0.1315 0.013,0.016 0.038,0.015 0.055,0.027 0.085,0.064 -0.033,0.032 0.1126,0.049 1.5514,1.5674 0.2217,0.2305 -3.18269996,-5.564 -0.012,-0.021 -0.035,0.041 -0.033,0.065 0,0.018 0.032,0.02 0.042,0.035 0.01,0.013 -3e-4,0.036 0.011,0.046 0.017,0.016 0.044,0.016 0.066,0.024 0.053,0.096 -0.021,-0.015 0.093,0.065 0.013,0.01 0.01,0.033 0.023,0.042 0.08,0.059 0.083,-0.01 0.091,0.1174 0.132,0.035 0.075,0.1267 0.2011,0.1949 0.1,0.025 0.2113,0.054 0.3128,0.046 0.089,-0.01 0.1687,-0.047 0.2475,-0.087 0.129,-0.066 0.2579,-0.1255 0.3973,-0.1666 0.1605,-0.042 0.3264,-0.048 0.4912,-0.052 0.1332,0 0.2716,-0.031 0.406,-0.047 0.2006,-0.014 0.4015,-0.013 0.6024,-0.018 0.2024,9e-4 0.4048,0 0.6072,-2e-4 0.2173,0 0.4346,0 0.6518,0.011 0.2895,0.011 0.5792,0.01 0.8686,0.021 0.3475,0.027 0.6942,0.06 1.0424,0.076 0.3821,0.027 0.7618,0.078 1.1426,0.1175 0.343,0.04 0.6858,0.082 1.0287,0.1233 0.3594,0.051 0.719,0.099 1.0787001,0.1468 0.3714,0.081 0.7451,0.1525 1.1152,0.2389 0.4207,0.1006 0.8453,0.1824 1.2703,0.2623 0.482,0.085 0.9666,0.1517 1.4543,0.1932 0.6334,0.055 1.2618,0.1529 1.893,0.2276 0.7671,0.096 1.5381,0.1288 2.3102,0.1456 0.6022,0.018 1.2031,-0.026 1.8043,-0.05 0.3651,-0.02 0.7303,-0.036 1.0959,-0.044 0.3255,0 0.6511,0.01 0.9766,0 0.3904,-0.014 0.7806,-0.033 1.1709,-0.05 0.4018,-0.011 0.8039,-0.01 1.2058,-0.011 0.391,0.01 0.7806,-0.015 1.1705,-0.037 0.3996,-0.016 0.798,-0.044 1.1969,-0.071 0.4113,-0.019 0.8192,-0.075 1.2262,-0.135 0.3656,-0.048 0.7256,-0.129 1.0892,-0.1891 0.3399,-0.068 0.6815,-0.1245 1.0233,-0.1816 0.3717,-0.041 0.744,-0.077 1.1171,-0.102 0.4017,-0.014 0.8021,-0.042 1.2025,-0.076 0.3663,-0.054 0.735,-0.085 1.1038,-0.1148 0.3129,-0.04 0.6267,-0.069 0.9415,-0.087 0.2988,-0.03 0.5974,-0.063 0.897,-0.082 0.2818,-0.017 0.5643,0 0.846,-0.018 0.2478,-0.022 0.4939,-0.065 0.7424,-0.077 0.2036,-0.012 0.4079,-0.017 0.6117,-0.013 0.1809,-4e-4 0.3618,-0.01 0.5427,-0.01 0.1574,0 0.3149,-0.01 0.4722,0 0.2381,0 0.4757,0.024 0.7137,0.033 0.3565,0.014 0.713,0.016 1.0692,0.037 0.3222,0.03 0.6447,0.035 0.968,0.035 0.2106,-0.01 0.4207,-0.02 0.6312,-0.028 0.1576,0 0.3153,-0.01 0.4729,0 0.2092,0 0.4183,0.016 0.6277,0.016 0.2369,0 0.4737,0 0.7106,0 0.2945,0 0.5888,0.018 0.8833,0.02 0.3135,0.01 0.6268,0.029 0.9402,0.043 0.2531,0 0.506,0.014 0.759,0.022 0.2388,-0.01 0.4742,-0.053 0.7111,-0.082 0.2044,-0.026 0.4108,-0.013 0.6164,-0.013 0.2566,0.031 0.5146,0.052 0.7706,0.088 0.316,0.045 0.6326,0.086 0.9488,0.1292 0.3588,0.052 0.7159,0.114 1.0727,0.1781 0.2616,0.065 0.5297,0.091 0.795,0.1339 0.151,0.029 0.3033,0.048 0.4567,0.057 0.1509,0.01 0.3021,0 0.4531,0.01 0.3015,0.028 0.60418,0.037 0.90645,0.056 0.47511,0.022 0.94861,0.069 1.42241,0.1091 0.41736,0.042 0.83658,0.038 1.25532,0.032 0.26062,-0.012 0.52173,0 0.78232,0.014 0.15425,0.01 0.30858,0.01 0.46294,0.01 0.11942,0.018 0.23277,-0.016 0.35068,-0.038 0.15581,-0.027 0.31393,-0.032 0.47162,-0.036 0.15231,0 0.30464,0 0.45696,0 0.15113,2e-4 0.30225,3e-4 0.45338,4e-4 0.0897,0.01 0.17634,0.01 0.26113,-0.026 0.1128,-0.046 0.0125,-0.032 0.0187,-0.049 0.0497,-0.054 0.039,-0.026 0.0489,-0.075 -0.0242,-0.053 -0.0121,-0.01 0.039,-0.087 0.0653,-0.1023 -0.021,0.015 0.0113,-0.074 0.0127,-0.035 0.0759,-0.1079 0.0953,-0.1319 0.14006,-0.1579 0.30519,-0.2939 0.47249,-0.4222 0.035,-0.053 0.22973,-0.1857 0.2407,-0.2362 0.002,-0.01 -0.006,-0.015 -0.008,-0.022 -0.0755,-0.083 -0.0616,-0.069 -0.0176,-0.1699 0.0525,-0.1204 -0.0342,0.01 0.0846,-0.1395 0.0484,-0.018 0.0172,-0.064 0.0337,-0.093 0.0534,-0.092 0.0965,-0.077 0.0722,-0.188 -0.0273,-0.1149 -0.0301,-0.2337 -0.0343,-0.3512 -0.0195,-0.045 0.016,-0.1013 -0.003,-0.1461 -0.009,-0.02 -0.0348,-0.027 -0.0485,-0.043 -0.0435,-0.053 -0.0443,-0.1187 -0.0484,-0.1833 -0.11169,-0.038 -0.0571,-0.1036 -0.0908,-0.1486 -0.013,-0.017 -0.0436,-0.012 -0.0597,-0.026 -0.014,-0.013 -0.0346,-0.067 -0.0251,-0.051 1.07446,1.865 2.14685,3.7312 3.22027,5.5967 -0.12598,-0.163 0.17249,-0.1818 -0.12209,-0.3104 -0.24259,-0.065 -0.50007,-0.058 -0.74991,-0.064 -0.2684,0.023 -0.53564,0.056 -0.80478,0.069 -0.26477,0.022 -0.53055,0.01 -0.79578,0.015 -0.24086,-10e-4 -0.48046,-0.01 -0.71916,0.027 -0.20486,0.019 -0.40704,0.058 -0.60833,0.1 -0.22975,0.036 -0.44139,0.1387 -0.65607,0.2235 -0.23755,0.1126 -0.46867,0.2378 -0.70669,0.3493 -0.23745,0.114 -0.47773,0.2217 -0.71805,0.3294 -0.21594,0.1043 -0.44432,0.1789 -0.67345,0.2479 -0.24703,0.052 -0.49726,0.087 -0.74586,0.1312 -0.32669,0.043 -0.65142,0.092 -0.97959,0.1225 -0.42594,0.025 -0.85193,0.049 -1.27836,0.065 -0.422,0.023 -0.8448,0.023 -1.2672,0.033 -0.4191,10e-4 -0.8382,-0.01 -1.2573,-0.01 -0.4423,7e-4 -0.8848,-0.013 -1.3269,0 -0.4038,0.022 -0.8067,0.055 -1.2105,0.075 -0.3595,0.018 -0.7196,0.016 -1.0794,0.019 -0.3637,0 -0.7273,0 -1.091,-7e-4 -0.363,-0.024 -0.7252,-0.055 -1.0888,-0.067 -0.3821,-0.014 -0.7646,-0.015 -1.1469,-0.019 -0.3875,0.01 -0.7749,0 -1.1623,0 -0.3997,-0.01 -0.7992,0 -1.1988,4e-4 -0.3585,0.01 -0.7169,0.013 -1.0755,0.01 -0.3748,0.014 -0.7482,-0.014 -1.1215,-0.043 -0.4055,-0.044 -0.8132,-0.066 -1.2186,-0.1096 -0.3137,-0.038 -0.6297,-0.037 -0.9451,-0.043 -0.1566,0 -0.08,3e-4 -0.2295,0 0,0 -2.9512,-5.8102 -2.9512,-5.8102 l 0,0 c 0.1631,0.01 0.08,0 0.2505,0.013 0.3419,0.013 0.6819,0.053 1.0222,0.086 0.1295,0.014 0.258,0.036 0.3876,0.049 0.266,0.027 0.5348,0.03 0.8,0.067 0.361,0.014 0.7204,0.056 1.0819,0.048 0.361,-0.01 0.7218,-7e-4 1.0828,0.01 0.3996,4e-4 0.7991,0.011 1.1988,10e-5 0.3879,0 0.7759,-0.01 1.1639,4e-4 0.3854,0 0.7709,0 1.1563,0 0.3662,0.01 0.7327,0.014 1.0976,0.05 0.3516,0.041 0.7081,0.011 1.0615,0.018 0.3567,0 0.7135,-5e-4 1.0702,8e-4 0.4063,0 0.8127,-0.011 1.218,-0.041 0.4501,-0.021 0.9009,-0.01 1.3513,-0.014 0.4153,0 0.8306,-0.01 1.2459,-0.01 0.4209,0.01 0.8418,0.01 1.2628,0.01 0.4092,-0.014 0.8183,-0.036 1.2219,-0.1106 0.3031,-0.02 0.602,-0.064 0.8986,-0.1294 0.23276,-0.046 0.4648,-0.094 0.69773,-0.138 0.20709,-0.039 0.40964,-0.107 0.60527,-0.1841 0.24105,-0.086 0.46472,-0.2075 0.69668,-0.3141 0.24422,-0.1055 0.47946,-0.2307 0.71797,-0.3481 0.24451,-0.1158 0.49455,-0.2223 0.75132,-0.3075 0.22183,-0.054 0.44466,-0.1098 0.67253,-0.13 0.13253,-0.011 0.26607,-0.035 0.39839,-0.043 0.13053,-0.01 0.26357,0.011 0.39433,0 0.25757,0.01 0.515,-0.01 0.77261,0 0.26711,-0.01 0.53406,-0.017 0.79964,-0.05 0.27853,-0.036 0.55893,-0.018 0.83832,-0.043 0.0779,0 0.15603,0 0.23389,-0.01 0.0985,-0.01 0.25984,-0.061 0.35049,0 0.0147,0.01 0.0172,0.032 0.0258,0.047 1.09368,1.8957 2.18907,3.7905 3.28104,5.6872 0.0558,0.097 -0.004,0 0.0115,0.1293 0.0167,0.1334 0.0464,-0.037 0.04,0.1122 -0.001,0.028 -0.0123,0.055 -0.0185,0.082 0.0203,0.066 0.0404,0.1282 0.0255,0.1981 -0.007,0.031 -0.0244,0.059 -0.0305,0.09 -0.01,0.05 0.007,0.1037 -0.005,0.154 -0.0119,0.1643 -0.0335,0.3284 -0.1141,0.4753 -0.0362,0.062 -0.0994,0.1306 -0.12351,0.1979 -0.003,0.01 0.008,0.017 0.004,0.025 -0.0157,0.04 -0.0521,0.069 -0.0619,0.1127 0.0334,0.04 0.009,-10e-5 -6.1e-4,0.077 -0.002,0.013 0.009,0.027 0.005,0.04 -0.0307,0.1 -0.11234,0.1811 -0.17852,0.2571 -0.1241,0.1135 -0.25859,0.2134 -0.39293,0.3144 -0.10145,0.085 -0.20703,0.1762 -0.24525,0.3074 -0.0305,0.1301 -0.10754,0.239 -0.18637,0.3428 -0.12094,0.1314 -0.23272,0.2388 -0.39826,0.3168 -0.15606,0.065 -0.32195,0.1262 -0.49311,0.1266 -0.15133,0 -0.30265,0 -0.45397,-2e-4 -0.14962,-2e-4 -0.29924,-5e-4 -0.44887,-9e-4 -0.13076,-2e-4 -0.26166,0 -0.39229,0.01 -0.14977,0.013 -0.29076,0.07 -0.44048,0.072 -0.17122,-3e-4 -0.34269,-9e-4 -0.51337,-0.016 -0.26632,-0.027 -0.53076,-0.07 -0.79439,-0.116 -0.44155,-0.019 -0.88269,-0.047 -1.32386,-0.074 -0.44993,-0.036 -0.89843,-0.079 -1.35024,-0.083 -0.28274,0.018 -0.5659,0.027 -0.84775,0.057 -0.15592,0.01 -0.31225,0 -0.46839,0.01 -0.19048,0 -0.38185,-0.01 -0.5691,-0.044 -0.12152,-0.027 -0.24046,-0.07 -0.36169,-0.095 -0.15913,-0.034 -0.32396,-0.046 -0.48073,-0.094 -0.33647,-0.093 -0.68025,-0.1574 -1.02625,-0.2022 -0.3066,-0.045 -0.6157,-0.072 -0.9245,-0.097 -0.083,-0.01 -0.166,-0.028 -0.2497,-0.036 -0.1587,-0.015 -0.3204,-0.01 -0.4782,-0.036 -0.1745,-0.037 -0.353,0 -0.5302,-0.013 -0.244,0 -0.4889,-8e-4 -0.7309,0.034 -0.2726,0.036 -0.5494,0.029 -0.8235,0.012 -0.308,-0.017 -0.615,-0.052 -0.9219,-0.08 -0.2879,0 -0.5754,0.015 -0.8632,0.02 -0.2356,0.01 -0.4711,7e-4 -0.7067,0 -0.2038,-2e-4 -0.4074,0.012 -0.6112,0.016 -0.1578,0.01 -0.316,0 -0.474,-7e-4 -0.2249,-0.01 -0.4495,-0.022 -0.6743,-0.034 -0.3378,-0.011 -0.676,-0.023 -1.0133,-0.043 -0.3379,-0.03 -0.6739,-0.066 -1.0135,-0.032 -0.2269,0.01 -0.4533,0.028 -0.6804,0.033 -0.157,0.01 -0.3142,0 -0.4713,0 -0.1842,0 -0.3682,-0.01 -0.5524,-0.011 -0.1986,0 -0.3973,0 -0.5958,0 -0.2448,0 -0.4898,-0.01 -0.7339,0.02 -0.1051,0.011 -0.2097,0.029 -0.3152,0.036 -0.1835,0.012 -0.369,0 -0.5527,0.01 -0.2917,0 -0.5834,0.01 -0.8729,0.05 -0.3164,0.04 -0.637,0.027 -0.9538,0.068 -0.3692,0.036 -0.7424,0.026 -1.1108,0.079 -0.4037,0.052 -0.811,0.075 -1.2173,0.095 -0.3558,0.028 -0.709,0.075 -1.0645,0.1046 -0.3403,0.04 -0.6769,0.1076 -1.0137,0.17 -0.3713,0.062 -0.7439,0.1126 -1.1163,0.1677 -0.4229,0.059 -0.8477,0.1047 -1.2713,0.1587 -0.4,0.023 -0.7975,0.073 -1.1982,0.078 -0.401,0.022 -0.8006,0.066 -1.2026,0.053 -0.3964,0 -0.7929,0 -1.1893,0.01 -0.3821,0 -0.764,0.019 -1.1436,0.066 -0.3323,0.031 -0.6664,0.022 -0.9999,0.023 -0.3807,-0.01 -0.7611,-0.023 -1.1413,-0.042 -0.63,-0.026 -1.2591,-0.073 -1.8898,-0.082 -0.7768,-0.024 -1.5535,-0.061 -2.3291,-0.1108 -0.6177,-0.025 -1.2314,-0.093 -1.8486,-0.1227 -0.4927,-0.047 -0.9889,-0.054 -1.4788,-0.1334 -0.4278,-0.064 -0.854,-0.1395 -1.2783,-0.222 -0.6028,-0.1107 0.1887,0.039 -0.3761,-0.082 -0.2369,-0.051 -0.482,-0.061 -0.7132,-0.1401 -0.3425,-0.081 -0.6913,-0.1088 -1.0388,-0.161 -0.351,-0.038 -0.7013,-0.086 -1.0508,-0.1366 -0.3648,-0.064 -0.7364,-0.093 -1.1051001,-0.1256 -0.3377,-0.039 -0.6798,-0.016 -1.0178,-0.058 -0.2711,-0.023 -0.5433,0 -0.8149,0 -0.214,0.01 -0.4279,0.01 -0.6419,0.01 -0.2012,0 -0.4024,0 -0.6036,-4e-4 -0.1823,0 -0.365,-9e-4 -0.547,0.01 -0.1521,0.01 -0.2995,0.035 -0.4462,0.076 -0.1211,-7e-4 -0.2423,0 -0.3634,10e-5 -0.095,0 -0.1639,0.056 -0.25,0.094 -0.1312,0.066 -0.2671,0.1319 -0.4104,0.1663 -0.033,0.01 -0.1696,0.044 -0.1933,0.048 -0.1063,0.016 -0.2183,-0.01 -0.325,0.01 -0.098,0 -0.3407,0.032 -0.4205,-0.026 -0.013,-0.01 -0.015,-0.028 -0.022,-0.042 -0.029,0 -0.1224,-0.01 -0.1502,-0.037 -0.011,-0.013 0,-0.038 -0.01,-0.051 -0.015,-0.016 -0.046,-0.01 -0.061,-0.026 -0.095,-0.1022 0.1167,0 -0.073,-0.073 -0.03,-0.088 0.01,-0.015 -0.092,-0.064 -0.016,-0.01 -0.02,-0.032 -0.037,-0.037 -0.036,-0.01 -0.093,0.026 -0.1123,-0.01 -3.26559992,-5.4812 -3.03269992,-3.5167 -3.28809992,-5.7523 0.013,-0.031 0.026,-0.062 0.0399999962,-0.093 0.0100000038,-0.026 0.0100000038,-0.053 0.0180000038,-0.078 0.013,-0.033 0.035,-0.061 0.05,-0.093 0.036,-0.08 0.053,-0.1683 0.1102,-0.2383 0.029,-0.042 0.063,-0.081 0.086,-0.1265 0,-0.01 10e-5,-0.022 0.01,-0.031 0.035,-0.059 0.095,-0.1008 0.1206,-0.1655 0.107,-0.1162 0.2113,-0.2338 0.3191,-0.3491 0.1089,-0.1129 0.2334,-0.203 0.37099992,-0.2784 0.097,-0.066 0.2012,-0.1173 0.2979,-0.183 0.1388,-0.077 0.2685,-0.1761 0.4317,-0.1974 0.2147,-0.044 0.4372,-0.019 0.6528,-0.065 0.1992,-0.027 0.4155,-0.036 0.6118,0.01 0.1128,0.073 0.2891,0 0.4184,0.026 0.1511,0 0.3022,-10e-5 0.4532,10e-5 0.1495,2e-4 0.2991,4e-4 0.4485,0 0.1513,0 0.3026,0.01 0.4539,0 0.2311,-0.013 0.4538,-0.064 0.6812,-0.1011 0.2584,-0.045 0.5178,-0.093 0.7784,-0.1173 0.2139,-0.011 0.4274,-0.026 0.634,-0.088 0.1899,-0.031 0.3689,-0.093 0.5494,-0.1579 0.1696,-0.015 0.3352,-0.079 0.5065,-0.05 0.5094,0.058 1.0128,0.1588 1.5207,0.2275 0.5149001,0.066 1.0304001,0.1271 1.5454001,0.1926 0.3727,0.047 0.7435,0.1084 1.1164,0.1546 0.1852,0.023 0.3713,0.038 0.557,0.058 0.7513,0.073 1.5028,0.142 2.2545,0.2082 0.3387,0.028 0.6758,0.01 1.0154,0.013 0.3214,0 0.643,0.01 0.9643,0 0.3407,0 0.6814,0.01 1.0217,0.028 0.5397,0.026 1.0795,0.06 1.6199,0.066 0.7485,0.01 1.4964,0.036 2.2449,0.047 0.9064,0.019 1.8129,0.028 2.7194,0.01 0.7737,-0.022 1.5484,-0.048 2.3207,0.022 0.8147,0.054 1.6266,0.1596 2.4448,0.131 0.7666,-0.01 1.5334,0 2.3,0 0.5276,0 1.055,-0.025 1.5826,-0.027 0.4585,0 0.9171,-0.012 1.3755,0 0.6068,0.022 1.2132,0.059 1.8205,0.06 0.7601,0 1.5202,0.011 2.28,0.031 0.873,0.013 1.7463,0.028 2.6189,-0.011 0.6682,-0.027 1.3331,-0.09 2.0009,-0.1236 0.6135,-0.028 1.2269,0.02 1.8407,0.024 0.7744,0.021 1.5494,0.018 2.3239,0.025 0.9436,0 1.8863,-0.022 2.8287,-0.07 0.4658,-0.021 0.9292,-0.051 1.3936,-0.093 0.2887,-0.026 0.5764,-0.064 0.8653,-0.087 0.1321,-0.011 0.2647,-0.014 0.3971,-0.022 0.63395,-0.059 1.26383,-0.1513 1.89218,-0.2534 0.40884,-0.061 0.81813,-0.1239 1.23193,-0.1362 0.29236,-0.019 0.58522,-0.034 0.87485,-0.082 0.26156,0 0.52302,0 0.78458,0 0.24561,0 0.49146,-0.01 0.73701,-0.01 0.27182,-0.01 0.54314,-0.025 0.81334,-0.059 0.34208,0.015 0.68487,0.014 1.02645,0.04 0.19257,0.013 0.38533,0.025 0.57786,0.038 0.0373,0 0.25124,0.023 0.30158,0.022 0.0375,-10e-4 0.0745,-0.01 0.11169,-0.014 0,0 2.90743,5.886 2.90743,5.886 z"
       inkscape:connector-curvature="0"
       id="path3791"
       style="fill:#483e37;fill-opacity:1" />
    <path
       d="m 61.138943,1044.6814 c -0.058,-0.07 -0.0273,-0.1656 -0.0543,-0.2437 -0.01,-0.028 -0.0349,-0.049 -0.0489,-0.075 -0.0343,-0.065 -0.0357,-0.091 -0.052,-0.1615 -0.0198,-0.016 -0.0428,-0.028 -0.0593,-0.048 -0.0148,-0.017 -0.0183,-0.042 -0.0328,-0.059 -0.0144,-0.018 -0.0391,-0.025 -0.0522,-0.043 -0.0136,-0.019 -0.0372,-0.087 -0.0254,-0.066 3.20861,5.5601 3.63017,7.675 3.19014,5.506 -0.0419,-0.033 -0.0254,-0.096 -0.0544,-0.1339 -0.0156,-0.021 -0.0446,-0.027 -0.0626,-0.046 -0.0269,-0.028 -0.0237,-0.077 -0.0522,-0.1034 -0.0178,-0.016 -0.0445,-0.019 -0.0667,-0.028 -0.02,-0.03 -0.0766,-0.079 -0.0817,-0.1173 -0.005,-0.041 0.0558,-0.046 -0.0336,-0.059 -0.16606,0.014 0.0535,-0.047 0.0564,-0.024 0.003,0.021 -0.0232,0.035 -0.0349,0.053 -0.009,0.092 0.0198,0.1868 0.0278,0.2804 0.01,0.1428 0.0109,0.286 0.0122,0.4291 0.12881,0.1009 0.0929,0.258 0.0785,0.4009 0.0569,0.077 0.0314,0.1855 0.065,0.2675 0.0106,0.026 0.0374,0.042 0.0522,0.066 0.0359,0.058 0.0358,0.082 0.0504,0.1474 -0.007,0.024 -0.042,0.1533 -0.0573,0.1795 -0.0992,0.1695 -0.28375,0.2677 -0.45374,0.3498 -0.0481,0.012 -0.0953,0.028 -0.1443,0.036 -0.0914,0.014 -0.18472,0.01 -0.27706,0.013 -0.19919,0.01 -0.39758,0.014 -0.597,0.015 -0.5456,0.018 -1.09095,0.034 -1.63688,0.027 -0.98101,-0.054 -1.95429,-0.1947 -2.93018,-0.3026 -1.46148,-0.156 -2.92266,-0.3157 -4.38493,-0.4643 -1.62099,-0.1683 -3.24819,-0.2516 -4.87429,-0.3506 -1.3713,-0.078 -2.7445,-0.079 -4.1173,-0.075 -1.0977,0.013 -2.1952,0.037 -3.2929,0.047 -1.0832,-0.01 -2.1658,0.032 -3.2487,0.049 -1.4148,0 -2.8296,-0.01 -4.2443,-0.022 -1.0757,10e-5 -2.1514,-0.035 -3.2271,-0.032 -0.7636,0 -0.8843,0.014 -1.6428,0.043 -1.4284,0.045 -2.8538,0.1571 -4.2827,0.1844 -1.0093,-0.01 -2.0188,0 -3.0282,-0.01 -0.7965,-0.01 -1.5933,0 -2.3897,0.016 -0.542,-0.029 -1.0918,0.04 -1.6317,-0.033 -0.119,-0.016 -0.2364,-0.042 -0.3546,-0.063 -0.8827,-0.1728 -1.761,-0.3656 -2.6454,-0.53 -0.7957,-0.1514 -1.5964,-0.2728 -2.3936,-0.4157 -0.4993,-0.1222 -1.0072,-0.1813 -1.5197,-0.2032 -0.2794,-0.015 -0.5587,0.01 -0.8379001,0.013 -0.1854,0.01 -0.3706,0.016 -0.556,0.021 -0.1528,0 -0.3058,0 -0.4587,0 -0.1861,0 -0.3722,-0.01 -0.5583,-0.016 -0.2322,-0.014 -0.4631,-0.01 -0.6942,0.019 -0.209,0.023 -0.4098,0.083 -0.6115,0.1389 -0.1444,0.047 -0.2881,0.093 -0.4308,0.1446 -0.1412,0.034 -0.2785,0.088 -0.4224,0.1111 -0.1661,0.052 -0.335,0.089 -0.5073,0.1113 -0.1681,0.021 -0.3374,0.011 -0.5047,0.036 -0.063,-0.013 -0.1263,0.01 -0.1894,0.01 -0.023,0 -0.043,-0.014 -0.065,-0.017 -2.4596,-0.3475 3.0143,5.4441 -3.5403,-5.6773 1.0746,1.8625 4.1082,7.5474 3.2239,5.5874 -0.8997,-1.9941 -2.1923,-3.7867 -3.2704,-5.6904 -0.01,-0.018 0.022,-0.1364 0.016,-0.1521 -0.01,-0.019 -0.036,-0.02 -0.048,-0.036 -0.012,-0.016 -0.013,-0.037 -0.02,-0.055 -0.027,-0.044 0.02,-0.098 0,-0.1416 -0.01,-0.019 -0.038,-0.018 -0.051,-0.034 -0.042,-0.049 -0.027,-0.1359 -0.024,-0.1932 0,-0.025 0.015,-0.052 0.01,-0.076 -0.01,-0.019 -0.033,-0.025 -0.049,-0.037 -0.01,-0.018 -0.019,-0.035 -0.023,-0.054 -0.017,-0.067 0,-0.1447 -4e-4,-0.2126 0.01,-0.2932 0.034,-0.3372 0.2701,-0.5322 0.1364,-0.133 0.3167,-0.2051 0.4953,-0.2618 0.2452,-0.069 0.4967,-0.061 0.7482,-0.057 0.166,0.024 0.3278,0.024 0.4791,0.1019 0.091,0.059 0.1889,0.06 0.2926,0.075 0.012,0 0.2133,0.043 0.2223,0.045 0.261,0.025 0.5173,0.081 0.7773,0.1132 0.3492,0.039 0.6989,0.077 1.0494,0.103 0.4014,0.038 0.797,0.1158 1.1971,0.1636 0.4901,0.065 0.9833,0.102 1.4755,0.1473 0.5761,0.031 1.1517,0.073 1.7282,0.097 0.8195001,0.038 1.6405001,0.019 2.4603001,-3e-4 0.9343,-0.014 1.8687,0 2.8031,0 1.178,-0.053 2.3567,-0.079 3.5352,-0.118 1.2264,-0.032 2.453,-0.086 3.6756,-0.1872 1.2997,-0.1253 2.5973,-0.2662 3.899,-0.3686 1.1333,-0.1012 2.2694,-0.1563 3.4065,-0.1859 1.0657,-0.029 2.1315,-0.019 3.1974,-0.014 1.1836,0.023 2.3673,0.021 3.5507,0.056 1.1497,0.031 2.2933,0.1434 3.4356,0.2697 0.7659,0.075 1.5293,0.1764 2.2903,0.2908 0.5722,0.088 1.1481,0.1457 1.7226,0.2152 0.4641,0.063 0.9281,0.1274 1.3923,0.1905 0.4836,0.061 0.9666,0.1271 1.4509,0.1823 0.6245,0.084 1.2481,0.1764 1.8745,0.2472 0.6627,0.079 1.3294,0.1048 1.9946,0.1507 0.6602,0.044 1.3119,0.161 1.9696,0.2263 0.50607,0.044 1.01483,0.052 1.52198,0.025 0.2754,-0.01 0.5502,-0.01 0.82364,-0.044 0.1538,-0.027 0.31101,-0.032 0.45621,-0.093 0.14624,-0.073 0.30509,-0.095 0.46336,-0.1221 0.23116,-0.03 0.46131,-0.064 0.69231,-0.095 0.24978,-0.039 0.50322,-0.041 0.75523,-0.052 0.20793,10e-5 0.4156,-0.012 0.62337,-0.018 0.14297,0.01 0.29406,-0.027 0.43495,0 0.20811,-0.028 0.41831,-0.029 0.627,-0.049 0.27429,-0.015 0.54368,-0.06 0.79066,-0.1824 0.0919,-0.039 0.11467,-0.084 0.1629,-0.1592 0.0407,-0.063 0.0722,-0.08 0.0672,-0.1562 0.0869,-0.096 0.0413,-0.1738 0.0215,-0.2835 -0.022,-0.036 0.008,-0.087 -0.0119,-0.122 -0.0247,-0.043 -0.16845,-0.083 -0.14409,-0.039 3.19767,5.7019 2.0636,7.4138 3.27679,5.5349 0.003,-0.017 0.0115,-0.035 0.009,-0.053 -0.0142,-0.1068 -0.28313,-0.1075 -0.34708,-0.1141 -0.37428,-0.035 -0.75042,-0.042 -1.12605,-0.048 -0.46552,-0.022 -0.93117,0 -1.39662,-0.016 -0.53198,-0.04 -1.06495,-0.056 -1.59808,-0.073 -1.02369,0 -2.04692,-0.033 -3.07052,-0.043 -1.33707,-0.01 -2.67429,-0.017 -4.01069,-0.062 -1.5557,-0.077 -3.1127,-0.1199 -4.6683,-0.1963 -1.9082,-0.1163 -3.8185,-0.1875 -5.7292,-0.241 -2.1241,-0.048 -4.2486,-0.04 -6.373,-0.024 -1.8856,0.019 -3.771,0.05 -5.6563,0.091 -1.4861,0.026 -2.9714,0.08 -4.4577,0.097 -1.4243,0.03 -2.8473,-0.012 -4.2693,-0.091 -1.5467,-0.081 -3.0934,-0.1613 -4.6397,-0.2505 -0.2459,-0.016 -0.4919,-0.032 -0.7378,-0.048 -0.5303,-0.036 -0.8899,-0.06 -1.4169,-0.1159 -0.6592,-0.07 -1.3144,-0.1741 -1.9718,-0.2594 -1.1208,-0.1507 -2.2351001,-0.3429 -3.3590001,-0.4705 -0.7351,-0.077 -1.4735,-0.1134 -2.2125,-0.1052 -0.3076,0.01 -0.6143,0.031 -0.9213,0.052 -0.01,-0.015 -0.3546,0.038 -0.2012,0 0.017,0 0.042,-0.021 0.05,-0.01 0.01,0.016 -0.023,0.027 -0.03,0.043 0,0.01 0,0.021 -6e-4,0.03 -0.01,0.019 -0.027,0.033 -0.037,0.052 -0.085,0.1672 0.1063,-0.132 -0.057,0.1099 -0.1287,0.172 -0.2936,0.3117 -0.4643,0.4403 -0.1279,0.134 -0.297,0.2177 -0.4642,0.2916 -0.083,0.048 -0.1951,0.052 -0.2749,0.1057 0,0 0,0.01 0,0.01 -0.012,0.012 -0.028,0.021 -0.042,0.032 -4e-4,0.01 0,0.012 0,0.017 0.01,0.016 0.034,0.018 0.047,0.032 0.033,0.034 0.039,0.081 0.048,0.1257 0.018,0.1386 0.019,0.2787 0.02,0.4182 0,0.1628 -8e-4,0.3256 -0.01,0.4883 0.015,0.094 -0.022,0.3016 0,0.3847 0.01,0.024 0.031,0.039 0.044,0.06 0.012,0.02 0.02,0.041 0.03,0.062 0.01,0.022 0,0.049 0.016,0.067 0.014,0.018 0.044,0.017 0.062,0.032 0.015,0.013 0.021,0.033 0.032,0.049 -1.0628,-1.8706 -2.1253,-3.7412 -3.1883,-5.6117 -0.01,-0.016 0.024,0.03 0.026,0.048 0,0.02 -0.01,0.039 -0.011,0.058 0.031,0.027 0.063,0.05 0.079,0.09 0.01,0.019 0,0.043 0.01,0.059 0.013,0.019 0.042,0.022 0.057,0.04 0.09,0.107 -0.075,-4e-4 0.082,0.085 0.043,0.02 0,0.073 0.025,0.099 0.015,0.017 0.044,0.012 0.063,0.025 0.032,0.023 0.046,0.086 0.063,0.1196 0.024,0.01 0.049,0.012 0.072,0.023 0.1226,0.059 -0.014,0.023 0.1209,0.07 0.098,0.035 0.1985,0.057 0.2963,0.095 0.3214,0.074 0.6466,0.1371 0.9747,0.1744 0.564,0.051 1.1239,0.1354 1.6839,0.2179 0.9551,0.158 1.9202,0.2472 2.8839,0.3344 1.1227,0.079 2.2445,0.1707 3.3659001,0.266 1.0786,0.1068 2.1607,0.1669 3.244,0.1953 1.1562,0.036 2.313,0.034 3.4694,0.057 1.4824,0.064 2.9648,0 4.4436,-0.104 1.0881,-0.088 2.1778,-0.1654 3.2623,-0.2924 0,-5e-4 1.5634,-0.199 1.5711,-0.2 1.4281,-0.1703 2.8381,-0.4525 4.2469,-0.7363 1.0605,-0.1859 2.1163,-0.4086 3.1849,-0.5438 0.8079,-0.1066 1.6195,-0.1504 2.4332,-0.1766 0.8892,-0.018 1.7783,0.01 2.6675,0.011 0.9864,0.011 1.9721,-0.05 2.9577,-0.084 1.0633,-0.055 2.1279,-0.07 3.1917,-0.1067 0.8656,-0.035 1.7313,-0.067 2.5976,-0.069 0.8202,0.021 1.6381,-0.054 2.4558,-0.1049 0.6563,-0.042 1.3143,-0.057 1.9685,-0.1276 0.3585,-0.035 0.7134,-0.091 1.06763,-0.1552 0.20892,-0.023 0.41012,-0.085 0.61356,-0.1339 0.16667,-0.032 0.32259,-0.1 0.48222,-0.1546 0.16397,-0.068 0.33483,-0.1158 0.50681,-0.1577 0.17675,-0.039 0.35587,-0.072 0.52847,-0.1277 0.16066,-0.041 0.3238,-0.066 0.48054,-0.1211 0.0252,-0.024 0.10885,-0.031 0.11235,-0.07 5.5e-4,-0.01 -0.0165,-0.01 -0.0138,-0.013 0.056,-0.118 0.0328,0.01 0.0438,-0.069 0.0874,-0.093 0.15857,-0.1923 0.25906,-0.2749 0.016,-0.034 0.05,-0.053 0.0706,-0.083 0.008,-0.012 0.007,-0.028 0.0158,-0.039 0.0436,-0.059 0.0819,-0.07 0.0839,-0.1443 0.0832,-0.1195 0.16343,-0.2341 0.27569,-0.3302 0.10381,-0.1227 0.25312,-0.211 0.39201,-0.2906 0.10662,-0.036 0.21123,-0.1041 0.32833,-0.093 0.0173,0 0.0318,0.015 0.0491,0.017 0.14756,0.017 0.0498,-0.026 0.14388,0.024 0.17782,0 0.0995,0.082 0.15832,0.1278 0.0192,0.015 0.0462,0.015 0.0681,0.026 0.0185,0.01 0.0349,0.022 0.0523,0.032 0.0486,0.028 0.098,0.068 0.15454,0.08 0.031,0.01 0.0635,0 0.0945,0.01 0.0366,0.01 0.14264,0.051 0.17291,0.063 0.29993,0.086 0.62763,0.063 0.93646,0.044 0.0437,-0.01 0.0878,-0.013 0.13107,-0.022 0.0287,-0.01 0.0571,-0.014 0.0846,-0.025 0.0146,-0.01 0.0299,-0.012 0.0409,-0.023 0.003,0 -0.007,-0.018 -0.004,-0.014 2.9884,5.9014 5.14,6.2788 2.92396,5.875 -0.22132,-0.04 -0.44373,-0.037 -0.6672,-0.029 -0.35826,0.021 -0.71586,0.051 -1.07415,0.072 -0.43634,0.021 -0.86874,0.074 -1.30046,0.1379 -0.37829,0.068 -0.75751,0.1247 -1.1389,0.1725 -0.49969,0.059 -1.00003,0.113 -1.49952,0.1744 -0.87893,0.077 -1.76188,0.1049 -2.64382,0.1243 -0.21059,0 -0.42121,0 -0.63175,0.01 -0.40123,0.01 -0.99036,0.035 -1.38706,0.048 -0.8025,0.025 -1.6053,0.037 -2.4079,0.061 -1.7357,0.078 -3.4712,0.1741 -5.2045,0.2971 -1.6686,0.1178 -3.3413,0.1641 -5.0136,0.1886 -1.3657,0.01 -2.7313,-0.035 -4.0948,-0.1109 -1.1523,-0.1036 -2.2996,-0.2556 -3.437,-0.4673 -1.0721,-0.2501 -2.1669,-0.3435 -3.2613,-0.4288 -0.9068,-0.067 -1.8146,-0.1177 -2.7222,-0.1721 -0.6512,-0.038 -1.3033,-0.051 -1.9555,-0.041 -0.4148,0.024 -0.8286,0.066 -1.2421,0.107 -0.3514,0.035 -0.7023,0.072 -1.0537,0.1055 -0.383,0.046 -0.7687,0.046 -1.1536,0.055 -0.4414,-6e-4 -0.8828,-0.01 -1.3241,-0.02 -0.5299,-0.011 -1.06,-0.01 -1.5898,-0.024 -0.6936,-0.032 -1.388,-0.032 -2.0821,-0.046 -0.6839,0 -1.3678,-0.01 -2.0514,-0.028 -0.4567,0 -0.9125,-0.025 -1.3673,-0.066 -0.4055,-0.045 -0.8074,-0.1136 -1.2121,-0.1645 -0.4126,-0.023 -0.8244001,-0.058 -1.2374001,-0.073 -0.2948,-0.01 -0.5899,-0.01 -0.8844,0.01 -0.1936,0.01 -0.3856,0.034 -0.5786,0.01 -0.089,-0.024 -0.1857,-0.022 -0.2753,-0.043 -0.082,-0.02 0.077,-0.012 -0.059,-0.013 -0.1535,0.031 -0.3077,0.046 -0.4639,0.053 -0.2066,0 -0.4149,-0.014 -0.6206,0 -0.2851,0.035 -0.5715,0.04 -0.8583,0.033 -0.5171,-0.055 -1.0282,-0.159 -1.5367,-0.2664 -0.5418,-0.1112 -1.0777,-0.2523 -1.6219,-0.3515 -0.065,-0.01 -0.1308,-0.021 -0.1962,-0.032 0,0 -2.76149996,-5.788 -2.76149996,-5.788 l 0,0 c 0.066,0.025 0.1319,0.049 0.1978,0.074 0.5383,0.1566 1.0801,0.3013 1.62899996,0.4156 0.4554,0.089 0.9121,0.1637 1.3763,0.1834 0.2481,0.012 0.4967,-0.016 0.7429,-0.046 0.083,-0.012 0.1657,-0.032 0.2495,-0.04 0.1319,-0.012 0.2682,0.011 0.4001,-0.011 0.1287,0 0.2588,-0.01 0.3847,-0.039 0.041,-0.01 0.1636,-0.04 0.1984,-0.044 0.1088,-0.012 0.2225,0.015 0.3306,0.022 0.057,0.011 0.091,0.015 0.1454,0.036 0.019,0.01 0.036,0.023 0.056,0.027 0.1,0.021 0.2093,-0.01 0.3094,0.015 0.316,0.018 0.6323,0.03 0.9482,0.049 0.4216,0.029 0.8418,0.074 1.2635,0.098 0.216,0 0.4296,0.014 0.6442,0.041 0.4215,0.052 -0.021,0 0.3857,0.067 0.067,0.01 0.1347,0.016 0.202,0.024 0.4614,0.074 0.9256001,0.1264 1.3892001,0.1825 0.6803,0.076 1.3642,0.1302 2.0494,0.1245 0.6784,-0.014 1.3572,-0.014 2.0351,-0.046 0.5221,-0.015 1.0445,-0.012 1.5666,-0.022 0.4306,-0.01 0.8611,-0.017 1.2917,-0.025 0.3657,-9e-4 0.7317,-0.014 1.0965,-0.041 0.3534,-0.038 0.7047,-0.085 1.0595,-0.1094 0.4518,-0.038 0.9076,-0.02 1.3607,-0.026 0.6867,0.031 1.3742,0.059 2.0571,0.1426 0.4315,0.05 0.863,0.1109 1.2953,0.1546 0.4962,0.05 0.9954,0.072 1.4902,0.137 2.0475,0.2286 -1.0558,-0.1135 1.0686,0.1053 0.7607,0.078 1.5162,0.2018 2.2665,0.3481 1.1285,0.2158 2.2647,0.3822 3.4031,0.5367 1.3796,0.1557 2.7646,0.2683 4.1521,0.3189 0.2652,0.01 0.5303,0.026 0.7956,0.03 1.4073,0.02 2.8154,-0.065 4.2208,-0.1194 1.73,-0.098 3.458,-0.2269 5.1868,-0.3434 1.4247,-0.1111 2.8505,-0.208 4.2679,-0.3964 0.8237,-0.1075 1.6452,-0.225 2.4639,-0.3654 0.48588,-0.089 0.96875,-0.1922 1.45508,-0.2787 0.38122,-0.058 0.76196,-0.1199 1.14624,-0.1546 0.43833,-0.058 0.87717,-0.1106 1.31665,-0.1595 0.35028,-0.05 0.70301,-0.085 1.0534,-0.1336 0.22531,-0.032 0.44802,-0.075 0.67451,-0.097 2.24228,-0.3387 0.0789,-0.03 3.11597,5.8786 0.006,0.012 -0.0266,-0.01 -0.0399,-0.011 -0.0753,-0.021 -0.0897,-0.026 -0.17732,-0.038 -0.0497,-0.01 -0.0999,-0.01 -0.14978,-0.014 -0.33799,0 -0.67351,0.028 -1.00746,0.081 -0.0644,0 -0.14162,0.01 -0.20635,-0.01 -0.0192,0 -0.0338,-0.023 -0.0532,-0.026 -0.0859,-0.018 -0.18116,0.01 -0.26679,-0.02 -0.0252,-0.01 -0.0511,-0.01 -0.0756,-0.017 -0.0179,-0.01 -0.0321,-0.022 -0.0506,-0.026 -0.0494,-0.01 -0.18726,0.017 -0.22169,-0.042 -0.009,-0.015 0.003,-0.034 0.005,-0.052 -0.13675,-0.071 0.0258,0.031 -0.0361,-0.071 -0.008,-0.013 -0.0339,0 -0.045,-0.013 -0.0364,-0.036 0.0677,-0.08 0.074,-0.1172 0.0462,-0.083 -0.15808,0.1214 -0.15595,0.1304 -0.0313,0.094 -0.1148,0.1548 -0.14848,0.2473 -0.10335,0.122 -0.20123,0.2482 -0.31471,0.361 -0.0462,0.093 -0.13386,0.1526 -0.18966,0.2382 -0.14207,0.1342 -0.29364,0.2487 -0.48049,0.3149 -0.16799,0.057 -0.33324,0.1222 -0.51064,0.1433 -0.18681,0.047 -0.37827,0.068 -0.55939,0.1361 -0.14621,0.031 -0.28721,0.081 -0.43181,0.1177 -0.18576,0.073 -0.38029,0.1246 -0.57044,0.1858 -0.23322,0.046 -0.46293,0.1006 -0.70001,0.126 -0.38946,0.013 -0.77762,0.055 -1.16784,0.036 -0.68015,0 -1.35988,-0.017 -2.04005,0 -0.19138,0.01 -0.61978,0.018 -0.80878,0.028 -0.4225,0.022 -0.8446,0.067 -1.2672,0.082 -0.1359,0 -0.272,0 -0.4079,0 -0.8833,0 -1.7659,-0.034 -2.649,-0.049 -1.0582,-0.01 -2.1167,0.023 -3.1728,0.091 -0.9846,0.071 -1.9715,0.134 -2.9583,0.1516 -0.8723,0 -1.744,0.028 -2.616,0.051 -0.8102,0.021 -1.6193,0.072 -2.4293,0.098 -1.0871,0.067 -2.172,0.1659 -3.251,0.3151 -1.4469,0.2174 -2.8915,0.4547 -4.3459,0.617 -0.8004,0.089 -1.5994,0.1914 -2.4014,0.2662 -1.619,0.151 -0.016,-0.01 -1.6381,0.127 -0.276,0.023 -0.5513,0.053 -0.8269,0.079 -1.4562,0.1463 -2.9109,0.3252 -4.3766,0.3414 -1.149,0.024 -2.2985,0.026 -3.4477,0.018 -1.0981,-0.026 -2.1968,-0.06 -3.2886,-0.1907 -1.1134,-0.1171 -2.2306,-0.1933 -3.3476001,-0.2672 -0.5173,-0.022 -1.0355,-0.061 -1.553,-0.075 -0.4099,-0.011 -0.8208,0.011 -1.2305,-0.014 -0.5346,-0.027 -1.0652,-0.1022 -1.6009,-0.1112 -0.1939,-2e-4 -0.388,0.01 -0.5817,-0.01 -0.5152,-0.028 0.1637,0.01 -0.2797,-0.032 -0.046,0 -0.092,0 -0.1387,0 -0.1345,0 -0.1876,-0.025 -0.3111,-0.046 -0.063,-0.01 -0.1283,-10e-4 -0.1905,-0.015 -0.018,0 -0.034,-0.017 -0.051,-0.025 -0.072,0 -0.1829,0.011 -0.2467,-0.033 -0.014,-0.01 -0.012,-0.035 -0.028,-0.043 -0.05,-0.024 -0.1161,0 -0.1588,-0.044 -0.046,-0.1148 0.017,0.01 -0.092,-0.084 -0.015,-0.013 -0.012,-0.04 -0.028,-0.052 -0.069,-0.05 -0.1066,-0.01 -0.1428,-0.1159 -0.084,-0.025 -0.074,0 -0.1119,-0.07 -1.0833,-1.9016 -2.16999996,-3.8014 -3.24599996,-5.7071 -0.01,-0.018 -0.013,-0.041 -0.012,-0.062 0.014,-0.2063 0.036,0.022 0.012,-0.1539 0.016,-0.2521 -0.013,0.1186 0.031,-0.1734 0.018,-0.1233 -0.01,-0.2535 0,-0.3773 -0.01,-0.1692 -0.011,-0.3384 -0.01,-0.5077 8e-4,-0.1572 3e-4,-0.3163 0.037,-0.4701 0.064,-0.2052 0.1891,-0.3673 0.3709,-0.4855 0.1442,-0.093 0.2959,-0.1489 0.455,-0.2087 0.116,-0.033 0.2131,-0.1088 0.3076,-0.1812 0.1026,-0.087 0.18559996,-0.1828 0.22449996,-0.3142 0.06,-0.1539 0.157,-0.2895 0.2899,-0.3889 0.1942,-0.1213 0.3875,-0.1918 0.6197,-0.1578 0.3502,0.026 0.6993,0.068 1.0469,0.1172 0.789,0.1037 1.5789,0.2003 2.3674,0.3066 1.1468,0.1983 2.2866,0.4358 3.4352,0.6248 1.3752001,0.2184 2.7471001,0.4801 4.1410001,0.5476 1.5415,0.1315 3.0868,0.225 4.633,0.2776 1.4012,0.035 2.8028,0 4.2043,0.014 1.5189,0.016 3.0369,0.07 4.5557,0.096 1.9159,0.04 3.832,0.07 5.7483,0.089 2.1241,0.017 4.2481,0.024 6.3722,0.011 1.8787,-0.014 3.7576,-0.021 5.636,0.027 1.5332,0.029 3.0673,0.015 4.6001,0.073 1.3104,0.022 2.6209,-0.027 3.9311,-0.047 0.97462,-0.032 1.94866,-0.09 2.91721,-0.206 0.52729,-0.07 1.06039,-0.1302 1.59259,-0.084 0.45284,0.033 0.90545,0.054 1.35957,0.025 0.36151,-0.01 0.72334,-0.017 1.08347,-0.051 0.21391,-0.018 0.42654,-0.05 0.64108,-0.063 2.31908,-0.1559 0.21743,-0.055 3.43553,5.6751 0.0185,0.033 -0.0353,0.067 -0.0511,0.1015 -0.0138,0.03 -0.0286,0.06 -0.0379,0.091 -0.0152,0.052 -0.007,0.1086 -0.0309,0.1586 -0.0537,0.1584 -0.14273,0.2908 -0.24109,0.4246 -0.17378,0.1898 -0.37221,0.3521 -0.60895,0.4584 -0.30748,0.132 -0.62875,0.2074 -0.95476,0.2782 -0.20267,0.036 -0.40489,0.071 -0.60688,0.1103 -0.16991,0.041 -0.33739,0.024 -0.51136,0.02 -0.21028,-0.01 -0.42057,-0.02 -0.63104,-0.017 -0.23131,0 -0.46257,10e-5 -0.69346,0.015 -0.20921,0.023 -0.41136,0.07 -0.61776,0.1071 -0.0548,0.015 -0.10765,0.037 -0.16311,0.05 -0.0672,0.015 -0.14324,0 -0.20708,0.034 -0.20658,0.075 -0.41441,0.129 -0.63643,0.1214 -0.31157,0.023 -0.62138,0.057 -0.9338,0.014 -0.54996,-0.054 -1.10043,-0.1028 -1.64922,-0.1681 -0.64513,-0.072 -1.29262,-0.1037 -1.93645,-0.184 -0.6742,-0.071 -1.3477,-0.149 -2.0247,-0.1902 -0.3315,-0.031 -0.6648,-0.072 -0.997,-0.093 -0.402,-0.025 -0.1978,0.01 -0.5811,-0.02 -0.083,-0.01 -0.1646,-0.019 -0.2469,-0.029 -0.4855,-0.049 -0.9686,-0.1201 -1.4552,-0.1565 -0.4754,-0.06 -0.9492,-0.1306 -1.4208,-0.2157 -0.5887,-0.111 -1.1812,-0.2002 -1.7727,-0.2945 -0.789,-0.1509 -1.5756,-0.3116 -2.3633,-0.4688 -0.5363,-0.1008 -1.0742,-0.2065 -1.6155,-0.2775 -0.4289,-0.056 -0.7664,-0.078 -1.1988,-0.1044 -0.2023,-0.012 -0.4048,-0.021 -0.6072,-0.032 -1.1678,-0.014 -2.3355,-0.02 -3.5033,0.01 -1.0626,0 -2.125,0.013 -3.1876,0.011 -1.1446,0.01 -2.2893,0.025 -3.4328,0.079 -0.6463,0.026 -1.29,0.061 -1.9337,0.1276 -0.657,0.068 -0.6519,0.082 -1.3065,0.1613 -0.212,0.026 -0.4245,0.048 -0.6367,0.071 -1.2305,0.1425 -2.469,0.1965 -3.7073,0.2175 -1.1589,0.027 -2.3142,0.1113 -3.4664,0.2389 -0.1678,0.012 -0.3352,0.028 -0.5032,0.035 -0.7569,0.034 -1.5161,0 -2.273,0.041 -0.8101,0.015 -1.6179,0.069 -2.427,0.1049 -0.5747,0.017 -1.1501,0.052 -1.7243,0 -0.4925,-0.026 -0.9842001,-0.067 -1.4764001,-0.097 -0.21,-0.021 -0.42,-0.023 -0.6296,-0.046 -0.4817,-0.053 0.093,0.01 -0.3606,-0.058 -0.061,-0.01 -0.1224,-0.012 -0.1835,-0.017 -0.3349,-0.047 -0.6776,-0.059 -1.0152,-0.071 -0.1441,-0.01 -0.2884,-0.011 -0.4319,-0.027 -0.4826,-0.053 0.1904,0.019 -0.2332,-0.04 -0.041,-0.01 -0.082,-0.01 -0.1235,-0.01 -0.058,0 -0.1641,-0.01 -0.2238,-0.014 -0.025,0 -0.048,-0.014 -0.073,-0.017 -0.093,-0.01 -0.186,0.02 -0.2787,0 -0.076,-0.01 -0.1571,-0.017 -0.2219,-0.064 -0.018,-0.013 -0.027,-0.037 -0.046,-0.047 -0.054,-0.027 -0.1235,-0.013 -0.1753,-0.05 -0.1394,-0.065 -0.3122,-0.085 -0.4634,-0.061 -0.062,0.015 -0.1215,0.034 -0.145,0.091 0.1833,-0.065 0.1286,0.077 0.1833,0.2023 0.031,0.066 0.095,0.1437 0.095,0.2195 -10e-5,0.027 -0.017,0.052 -0.014,0.079 0,0.02 0.02,0.035 0.03,0.052 0.03,0.043 0.081,0.096 0.084,0.1519 0,0.026 -0.015,0.051 -0.01,0.076 0,4e-4 0.067,0.093 0.068,0.094 0.041,0.1 -0.023,0.099 0.06,0.1669 0.015,0.012 0.058,0.052 0.048,0.034 -1.0658,-1.8677 -4.42169996,-7.3732 -3.219,-5.5906 1.2232,1.813 2.1871,3.788 3.2806,5.682 -1.0943,-1.8547 -2.1695,-3.7208 -3.2829,-5.5641 -0.014,-0.022 -0.027,0.046 -0.035,0.07 -0.035,0.1034 0,0.018 0.03,0.087 0.04,0.09 -0.057,0.023 0.045,0.075 0.01,0.011 0.014,0.029 0.028,0.034 0.068,0.023 0.2742,-0.014 0.3566,0 0.1327,0 0.2661,0 0.3925,-0.05 0.072,-0.026 0.1343,-0.033 0.2063,-0.053 0.2041,-0.056 -0.1012,0.022 0.1499,-0.054 0.015,0 0.031,0 0.047,-0.01 0.1521,-0.037 0.2985,-0.09 0.4529,-0.1187 0.2293,-0.072 0.4701,-0.1013 0.706,-0.1443 0.255,-0.049 0.5136,-0.089 0.7734,-0.09 0.1806,-0.01 0.3612,-0.011 0.5418,-0.016 0.1534,2e-4 0.3068,5e-4 0.4602,0 0.192,0 0.384,0.011 0.576,0.016 0.3109,0 0.6213,0.03 0.931,0.056 0.5647,0.063 1.1259,0.1642 1.6763,0.3055 0.7983001,0.2316 1.6157001,0.3952 2.4296001,0.5615 0.8503,0.1511 1.696,0.331 2.5593,0.3953 0.6387,0.077 1.2766,0.1638 1.9211,0.1741 0.8135,0.016 1.627,0.031 2.4405,0.054 1.042,0.042 2.081,0.1355 3.1217,0.2014 1.4511,0.078 2.9062,0.058 4.3586,0.025 0.554,-0.012 1.1079,-0.033 1.6619,-0.043 1.0627,-0.02 2.1259,-0.015 3.1886,-0.038 1.3805,-0.024 2.7612,-0.048 4.1393,-0.1387 1.0756,-0.066 2.1501,-0.1723 3.2292,-0.1368 1.1201,0.01 2.2401,0.03 3.3598,0.066 1.4118,0.042 2.8231,0.1116 4.2308,0.2288 1.6261,0.1244 3.252,0.2545 4.8808,0.3396 1.4263,0.1047 2.85164,0.2269 4.28092,0.2845 0.91348,0.018 1.82764,0.054 2.74077,0.011 0.52035,0 1.03861,-0.048 1.55449,-0.1164 0.21037,-0.02 0.4263,-0.032 0.631,-0.089 0.10306,-0.029 0.0687,-0.054 0.10297,-0.024 -0.0436,0.034 -0.14038,0.095 -0.19887,0.073 -0.0293,-0.011 -0.0308,-0.064 -0.0734,-0.058 -0.0444,-0.1255 -0.0219,-0.1182 -0.0268,-0.2408 -0.004,-0.1005 -0.0488,-0.2003 -0.0261,-0.3031 -0.0408,-0.1525 -0.12094,-0.2877 -0.047,-0.4451 10e-4,-0.155 0.002,-0.3108 0.0263,-0.4642 0.0341,-0.1673 0.0961,-0.3207 0.20093,-0.4573 0.0802,-0.1741 0.33756,-0.309 0.51983,-0.3438 0.18093,-0.041 0.36639,-0.1029 0.5457,-0.02 0.0791,0.097 0.11979,0.036 0.20974,0.1053 0.019,0.015 0.0249,0.043 0.0448,0.056 0.0498,0.034 0.12127,0.028 0.16056,0.081 1.96718,1.1326 0.0558,0.016 3.34659,5.7272 0.0502,0.087 0.0697,0.1888 0.0556,0.2892 0.0168,0.061 0.0302,0.096 0.0311,0.1609 4.4e-4,0.035 -0.009,0.07 -0.008,0.1047 0.003,0.1096 0.0458,0.2173 0.0142,0.3281 0,0 -3.8653,-5.3201 -3.8653,-5.3201 z"
       inkscape:connector-curvature="0"
       id="path3793"
       style="fill:#483e37;fill-opacity:1" />
    <path
       d="m 60.705183,996.74815 c -0.27412,-0.01 -0.54556,0.029 -0.81984,0.018 -0.13955,0.01 -0.27719,-0.02 -0.41544,-0.034 0,0 -2.82268,-5.864 -2.82268,-5.864 l 0,0 c 0.10591,0.043 0.21228,0.06 0.32165,0.092 0.21877,0.016 0.44091,0.065 0.65,-0.03 0,0 3.08631,5.8177 3.08631,5.8177 z"
       inkscape:connector-curvature="0"
       id="path3797"
       style="fill:#241f1c;fill-opacity:1" />
    <path
       d="m 53.304643,996.60385 c -0.19685,-0.039 -0.39877,-0.028 -0.598,-0.02 0,0 -2.96,-5.8094 -2.96,-5.8094 l 0,0 c 0.1921,0.01 0.3881,0.021 0.5773,-0.02 0,0 2.9807,5.85 2.9807,5.85 z"
       inkscape:connector-curvature="0"
       id="path3799"
       style="fill:#241f1c;fill-opacity:1" />
    <path
       d="m 42.133343,996.91105 c -0.3569,-0.074 -0.7235,-0.089 -1.0859,-0.1217 0,0 -2.8613,-5.6158 -2.8613,-5.6158 l 0,0 c 0.3208,-0.032 0.6481,-0.043 0.9618,-0.1217 0,0 2.9854,5.8592 2.9854,5.8592 z"
       inkscape:connector-curvature="0"
       id="path3801"
       style="fill:#241f1c;fill-opacity:1" />
    <path
       d="m 33.054543,996.52845 c -0.2949,-0.054 -0.5979,-0.039 -0.8966,-0.048 -0.2004,-0.01 -0.4005,-0.018 -0.6008,-0.026 0,0 -2.9253,-5.6838 -2.9253,-5.6838 l 0,0 c 0.1976,-0.024 0.3948,-0.044 0.5942,-0.044 0.2822,-0.01 0.5704,0.01 0.8478,-0.048 0,0 2.9807,5.8499 2.9807,5.8499 z"
       inkscape:connector-curvature="0"
       id="path3803"
       style="fill:#241f1c;fill-opacity:1" />
    <path
       d="m 23.156043,996.83065 c -0.3455,-0.067 -0.7002,-0.038 -1.05,-0.043 0,0 -2.9255,-5.6725 -2.9255,-5.6725 l 0,0 c 0.332,-0.04 0.6659,-0.076 0.9948,-0.1342 0,0 2.9807,5.8499 2.9807,5.8499 z"
       inkscape:connector-curvature="0"
       id="path3805"
       style="fill:#241f1c;fill-opacity:1" />
    <path
       d="m 5.6418429,995.90255 c -0.3195,0.033 -0.6376,0.1025 -0.9508,0.1761 -0.05,0.012 -0.1,0.024 -0.1496,0.036 0,0 -3.0322,-5.723 -3.0322,-5.723 l 0,0 c 0.048,0 0.096,-0.01 0.1446,-0.012 0.2885,-0.039 0.5911,-0.094 0.8421,-0.2482 0,0 3.1459,5.7713 3.1459,5.7713 z"
       inkscape:connector-curvature="0"
       id="path3807"
       style="fill:#241f1c;fill-opacity:1" />
    <path
       d="m 36.994643,996.68375 c -0.1179,-0.026 -0.2381,-0.029 -0.3581,-0.032 0,0 -2.9526,-5.7947 -2.9526,-5.7947 l 0,0 c 0.1092,0 0.2188,0 0.3252,-0.032 0,0 2.9855,5.8593 2.9855,5.8593 z"
       inkscape:connector-curvature="0"
       id="path3809"
       style="fill:#241f1c;fill-opacity:1" />
    <path
       d="m 14.765343,996.13585 c -0.2716,0.1917 -0.5561,0.3556 -0.864,0.4811 -0.188,0.077 -0.3821,0.1317 -0.5827,0.1627 0,0 -2.9675,-5.8114 -2.9675,-5.8114 l 0,0 c 0.1509,0.032 0.2509,0.044 0.4051,-0.01 0.2094,-0.071 0.4273,-0.1797 0.5079,-0.4008 0,0 3.5012,5.574 3.5012,5.574 z"
       inkscape:connector-curvature="0"
       id="path3811"
       style="fill:#241f1c;fill-opacity:1" />
    <path
       d="m 18.435543,996.12665 c -0.034,0 -0.068,0.01 -0.1018,0.015 0,0 -3.1401,-5.7459 -3.1401,-5.7459 l 0,0 c 0.022,-0.012 0.044,-0.024 0.066,-0.035 0,0 3.1758,5.7664 3.1758,5.7664 z"
       inkscape:connector-curvature="0"
       id="path3813"
       style="fill:#241f1c;fill-opacity:1" />
    <path
       d="m 28.749743,995.99935 c -0.2514,0 -0.5018,0.027 -0.7533,0.035 -0.1957,0 -0.098,0 -0.2947,0 0,0 -2.952,-5.77 -2.952,-5.77 l 0,0 c 0.1869,0 0.094,0 0.2779,-0.01 0.2123,-0.01 0.4336,-0.01 0.6358,-0.081 0,0 3.0863,5.8177 3.0863,5.8177 z"
       inkscape:connector-curvature="0"
       id="path3815"
       style="fill:#241f1c;fill-opacity:1" />
    <path
       d="m 47.872143,996.07615 c -0.2263,-0.067 -0.4556,-0.034 -0.6844,0 0,0 -2.9963,-5.7605 -2.9963,-5.7605 l 0,0 c 0.2347,-0.01 0.4698,-0.023 0.6953,-0.095 0,0 2.9854,5.8593 2.9854,5.8593 z"
       inkscape:connector-curvature="0"
       id="path3817"
       style="fill:#241f1c;fill-opacity:1" />
    <path
       d="m 59.738983,1049.1991 c -0.10947,-0.025 -0.22175,-0.024 -0.33327,-0.026 0,0 -2.95914,-5.8077 -2.95914,-5.8077 l 0,0 c 0.10274,-10e-4 0.20675,0 0.30695,-0.026 0,0 2.98546,5.8593 2.98546,5.8593 z"
       inkscape:connector-curvature="0"
       id="path3819"
       style="fill:#241f1c;fill-opacity:1" />
    <path
       d="m 59.616573,1048.5663 c -0.14805,0.018 -0.29245,0.057 -0.4377,0.09 0,0 -3.0696,-5.764 -3.0696,-5.764 l 0,0 c 0.11451,-0.015 0.23174,-0.029 0.33149,-0.093 0,0 3.17581,5.7664 3.17581,5.7664 z"
       inkscape:connector-curvature="0"
       id="path3821"
       style="fill:#241f1c;fill-opacity:1" />
    <path
       d="m 51.863143,1049.1859 c -0.3186,-0.01 -0.6378,0.01 -0.9565,0.017 -0.3446,0 -0.6887,0.014 -1.033,0.025 -0.1213,0.01 -0.2426,0.013 -0.3639,0.021 0,0 -2.9597,-5.8099 -2.9597,-5.8099 l 0,0 c 0.1279,0.01 0.2559,0.016 0.3839,0.021 0.3428,0.01 0.6859,0.026 1.0287,0.01 0.2708,-0.01 0.5573,-0.01 0.8142,-0.099 0,0 3.0863,5.8177 3.0863,5.8177 z"
       inkscape:connector-curvature="0"
       id="path3823"
       style="fill:#241f1c;fill-opacity:1" />
    <path
       d="m 43.346743,1049.3547 c -0.258,-0.061 -0.5201,-0.03 -0.7801,-0.01 -0.2084,0.028 -0.4188,0.029 -0.6278,0.05 0,0 -3.0203,-5.7588 -3.0203,-5.7588 l 0,0 c 0.2179,-0.03 0.4349,-0.052 0.6554,-0.048 0.264,-0.018 0.5279,-0.048 0.7874,-0.097 0,0 2.9854,5.8593 2.9854,5.8593 z"
       inkscape:connector-curvature="0"
       id="path3825"
       style="fill:#241f1c;fill-opacity:1" />
    <path
       d="m 35.144143,1049.3696 c -0.1757,-0.069 -0.3661,-0.082 -0.5527,-0.094 -0.1187,-0.01 -0.237,-0.014 -0.356,-0.015 0,0 -2.9646,-5.8319 -2.9646,-5.8319 l 0,0 c 0.1279,0 0.2557,0 0.3835,0 0.1988,0.01 0.3984,0.034 0.5973,0.022 0,0 2.8925,5.9164 2.8925,5.9164 z"
       inkscape:connector-curvature="0"
       id="path3827"
       style="fill:#241f1c;fill-opacity:1" />
    <path
       d="m 28.833343,1048.7445 c -0.2028,-0.043 -0.4105,-0.018 -0.6157,-0.023 -0.026,0 -0.052,0.01 -0.078,0.01 0,0 -3.0477,-5.788 -3.0477,-5.788 l 0,0 c 0.035,-0.01 0.071,-0.011 0.1061,-0.016 0.216,-0.034 0.4355,0.01 0.6504,-0.041 0,0 2.9854,5.8593 2.9854,5.8593 z"
       inkscape:connector-curvature="0"
       id="path3829"
       style="fill:#241f1c;fill-opacity:1" />
    <path
       d="m 21.807743,1048.8972 c -0.2154,-0.042 -0.4358,-0.02 -0.6536,-0.023 0,0 -2.9623,-5.8139 -2.9623,-5.8139 l 0,0 c 0.2099,0 0.4235,0.021 0.6305,-0.023 0,0 2.9854,5.8593 2.9854,5.8593 z"
       inkscape:connector-curvature="0"
       id="path3831"
       style="fill:#241f1c;fill-opacity:1" />
    <path
       d="m 16.064843,1048.2168 c -0.2154,-0.042 -0.4358,-0.02 -0.6536,-0.023 -0.407,-0.022 -0.805,-0.1254 -1.2051,-0.1977 -0.084,-0.016 -0.1686,-0.032 -0.2529,-0.047 0,0 -2.7987,-5.7016 -2.7987,-5.7016 l 0,0 c 0.085,0.01 0.1702,0.019 0.2554,0.029 0.3444,0.052 0.6918,0.087 1.039,0.1036 0.2099,0 0.4235,0.021 0.6305,-0.023 0,0 2.9854,5.8593 2.9854,5.8593 z"
       inkscape:connector-curvature="0"
       id="path3833"
       style="fill:#241f1c;fill-opacity:1" />
    <path
       d="m 7.9751429,1047.6831 c -0.2164,-0.047 -0.4341,-0.025 -0.6506,0.01 -0.2159,0.021 -0.4303,0.063 -0.642,0.111 -0.042,0.01 -0.084,0.015 -0.1261,0.022 0,0 -3.0455,-5.7602 -3.0455,-5.7602 l 0,0 c 0.034,0 0.068,-0.01 0.1019,-0.013 0.2327,-0.037 0.4604,-0.1002 0.6928,-0.1392 0.2298,-0.015 0.4567,-0.054 0.684,-0.085 0,0 2.9855,5.8592 2.9855,5.8592 z"
       inkscape:connector-curvature="0"
       id="path3835"
       style="fill:#241f1c;fill-opacity:1" />
  </g>
</svg>
