<?xml version="1.0" encoding="UTF-8" standalone="no"?>
<!-- Created with Inkscape (http://www.inkscape.org/) -->

<svg
   xmlns:dc="http://purl.org/dc/elements/1.1/"
   xmlns:cc="http://creativecommons.org/ns#"
   xmlns:rdf="http://www.w3.org/1999/02/22-rdf-syntax-ns#"
   xmlns:svg="http://www.w3.org/2000/svg"
   xmlns="http://www.w3.org/2000/svg"
   xmlns:sodipodi="http://sodipodi.sourceforge.net/DTD/sodipodi-0.dtd"
   xmlns:inkscape="http://www.inkscape.org/namespaces/inkscape"
   width="192"
   height="64"
   id="svg2"
   version="1.1"
   inkscape:version="0.48.2 r9819"
   sodipodi:docname="New document 1">
  <defs
     id="defs4" />
  <sodipodi:namedview
     id="base"
     pagecolor="#ffffff"
     bordercolor="#666666"
     borderopacity="1.0"
     inkscape:pageopacity="0.0"
     inkscape:pageshadow="2"
     inkscape:zoom="3.0138979"
     inkscape:cx="103.05411"
     inkscape:cy="26.925666"
     inkscape:document-units="px"
     inkscape:current-layer="layer1"
     showgrid="false"
     inkscape:window-width="1165"
     inkscape:window-height="943"
     inkscape:window-x="317"
     inkscape:window-y="24"
     inkscape:window-maximized="0" />
  <metadata
     id="metadata7">
    <rdf:RDF>
      <cc:Work
         rdf:about="">
        <dc:format>image/svg+xml</dc:format>
        <dc:type
           rdf:resource="http://purl.org/dc/dcmitype/StillImage" />
        <dc:title></dc:title>
      </cc:Work>
    </rdf:RDF>
  </metadata>
  <g
     inkscape:label="Layer 1"
     inkscape:groupmode="layer"
     id="layer1"
     transform="translate(0,-988.36218)">
    <path
       style="fill:#453a33;stroke:#0a0000;stroke-width:3;stroke-linecap:butt;stroke-linejoin:miter;stroke-opacity:1;stroke-miterlimit:4;stroke-dasharray:none;fill-opacity:1"
       d="m 185.8059,3.9448793 c -23.53553,-1.024017 -47.07638,3.6497587 -70.6726,3.6497587 -17.593158,0 -37.768146,3.990267 -55.078179,1.327185 C 47.866961,7.0467216 21.998951,0.26165442 9.9538874,4.2766756 5.150991,5.877641 1.0531033,57.227034 8.6267024,61.013834 15.961641,64.681303 25.441048,60.350241 33.179625,60.350241 c 5.879461,0 12.436765,-0.83029 18.248793,0 22.034956,3.147851 70.962592,6.871057 93.566542,-0.663592 11.27177,-3.757256 28.79721,4.513782 38.48836,-0.331796 15.63814,-7.819067 10.95667,-44.617361 2.32258,-55.4099737 z"
       id="path3012"
       inkscape:connector-curvature="0"
       transform="translate(0,988.36218)" />
    <path
       style="fill:none;stroke:#000000;stroke-width:6;stroke-linecap:butt;stroke-linejoin:miter;stroke-opacity:1;stroke-miterlimit:4;stroke-dasharray:none"
       d="m 27.539088,9.5854155 c 9.924741,29.9649575 38.027228,12.5255075 3.317963,34.8386055 -2.927079,1.881694 -8.180718,5.03758 -9.953887,6.304129"
       id="path3018"
       inkscape:connector-curvature="0"
       transform="translate(0,988.36218)" />
    <path
       style="fill:none;stroke:#000000;stroke-width:6;stroke-linecap:butt;stroke-linejoin:miter;stroke-miterlimit:4;stroke-opacity:1;stroke-dasharray:none"
       d="m 76.644933,1003.9199 c 53.604057,22.7422 28.991817,16.9658 -8.294906,34.175"
       id="path3020"
       inkscape:connector-curvature="0" />
    <path
       style="fill:none;stroke:#000000;stroke-width:6;stroke-linecap:butt;stroke-linejoin:miter;stroke-miterlimit:4;stroke-opacity:1;stroke-dasharray:none"
       d="m 137.36364,1002.2609 c 5.564,0.4673 10.05608,5.05 14.59904,8.295 11.69062,8.3504 21.43545,6.617 8.6267,13.6036 -10.50664,5.7309 -23.81004,12.2781 -33.51142,16.5898"
       id="path3022"
       inkscape:connector-curvature="0" />
  </g>
</svg>
